<?xml version="1.0" encoding="utf-8"?>
<!-- Generator: Adobe Illustrator 22.0.0, SVG Export Plug-In . SVG Version: 6.00 Build 0)  -->
<svg version="1.0" id="Calque_1" xmlns="http://www.w3.org/2000/svg" xmlns:xlink="http://www.w3.org/1999/xlink" x="0px" y="0px"
	 viewBox="0 0 600 1200" style="enable-background:new 0 0 600 1200;" xml:space="preserve">
<style type="text/css">
	.st0{fill:#001220;}
	.st1{fill:#FFAE2C;stroke:#231F20;stroke-width:13;stroke-miterlimit:10;}
	.st2{fill:#FFAE2C;stroke:#000000;stroke-width:8;stroke-miterlimit:10;}
	.st3{fill:#D6E3FE;}
	.st4{fill:#BC74E1;}
	.st5{fill:#A364C8;}
	.st6{fill:#08E1B6;}
	.st7{fill:#04C89B;}
	.st8{fill:#6833A3;}
	.st9{opacity:0.4;fill:#6833A3;}
	.st10{fill:none;stroke:#6833A3;stroke-miterlimit:10;}
	.st11{fill:#7B9FD4;}
	.st12{fill:url(#SVGID_1_);}
	.st13{fill:#FFFFFF;}
	.st14{fill:#5B8CDD;}
	.st15{fill:#A9C7F9;}
	.st16{font-family:'Montserrat-Black';}
	.st17{font-size:32.0856px;}
	.st18{letter-spacing:6;}
	.st19{opacity:0.4;fill:#FFFFFF;}
	.st20{opacity:0.4;fill:none;stroke:#402083;stroke-width:4;stroke-miterlimit:10;}
	.st21{fill:#008487;}
	.st22{fill:#00CBDC;}
	.st23{font-size:27.1247px;}
	.st24{letter-spacing:5;}
	.st25{fill:none;}
	.st26{fill-rule:evenodd;clip-rule:evenodd;fill:#FFFFFF;}
	.st27{fill:#235098;}
	.st28{fill:#4883ED;}
	.st29{font-size:23.1848px;}
	.st30{letter-spacing:4;}
	.st31{letter-spacing:3;}
	.st32{opacity:0.4;}
	.st33{font-family:'Montserrat-ExtraBold';}
	.st34{font-size:10.3585px;}
	.st35{letter-spacing:1;}
	.st36{letter-spacing:2;}
	.st37{font-size:11.0905px;}
	.st38{fill:none;stroke:#6833A3;stroke-width:3;stroke-miterlimit:10;}
	.st39{fill:none;stroke:#6833A3;stroke-width:2;stroke-miterlimit:10;}
</style>
<g>
	<rect x="2" class="st0" width="599" height="1200"/>
	<path class="st1" d="M2,419.9c119.6,0,239.2,0,358.8,0c18.6,24.4,47.4,70.2,68.9,146.9c17.2,61.4,22.8,117.4,25.6,147.9
		c2.6,27.1,6.3,78.4,3.9,143c-4.1,109.4-23.4,184.8-28.5,204.1c-12.4,46.5-24.2,71.8-27.2,78c-14.9,31.1-30,49.6-40.4,60.1
		c-120.4,0-240.8,0-361.1,0"/>
	<path class="st2" d="M388.8,420h-58.3c-82.8,0-150-67.2-150-150V143.7C180.5,66,243.5,3,321.2,3h255.3c10.9,0,19.7,8.8,19.7,19.7
		v189.9C596.1,327.1,503.3,420,388.8,420z"/>
	<g>
		<path class="st3" d="M546.2,344.3c0,9.5-76,17.2-169.7,17.2c-93.7,0-169.7-7.7-169.7-17.2c0-9.5,76-17.2,169.7-17.2
			C470.2,327.1,546.2,334.8,546.2,344.3z"/>
		<g>
			<g>
				<path class="st4" d="M296.2,280.9c-2.1,0.2-4.2,1-6.4,1c-2.6,0-2.3-8.4-2.6-10.5c-0.8-5.2-2.9-10.6-7.6-13.5
					c-4.4-2.7-10.3-2.2-14.1,1.2c-2.5,2.2-4.1,5.3-5.6,8.4c-1.2-1.2-2.5-2.3-3.2-3c-4.3-4.2-8.9-8.1-13.8-11.5
					c-3.8-2.6-8.9-5.9-13.7-5.6c-5.4,0.3-5.7,6.4-5.2,10.5c0,0.3,0.1,0.7,0.2,1c-1.5-1.2-3-2.3-4.6-3.4c-4.7-3.3-11.2-4-14.9,0.9
					c-0.1,0.1-0.2,0.3-0.2,0.4c-0.1,0.1-0.2,0.2-0.3,0.4c-3.2,5.1-0.4,10.9,4.2,14.1c1.6,1.1,3.3,2.2,4.9,3.2
					c-3.9,0.7-7.7,2.1-8.9,5.6c-1.5,4.4,3.1,8.2,5.9,10.7c4.4,4,9.9,7,15.2,9.7c2.8,1.4,5.7,3,8.8,4.1c-2.1,2.4-4.2,4.7-5.7,7.7
					c-2.3,4.6-0.5,10.4,3.2,13.7c4.2,3.7,9.9,3.8,15.1,2.9c2-0.3,10.3-3.7,11.3-1.8c0.9,1.7,1,4,1.4,5.9c0.5,2.8,1.7,5.4,3.6,7.4
					c3.7,3.9,9.5,4.2,14.5,3.6c5.8-0.7,11.5-2.8,16.8-5.3c2.9-1.3,5.7-2.8,8.5-4.3c1.3-0.7,4-3.1,5.6-2.7c0.9,0.3,1.7,0.1,2.4-0.4
					c0.2-0.1,0.4-0.3,0.5-0.5c0,0,0,0,0,0c0,0,0.1-0.1,0.1-0.1c0,0,0,0,0.1-0.1c0,0,0-0.1,0-0.1c0-0.1,0.1-0.1,0.1-0.2c0,0,0,0,0,0
					c0.1-0.2,0.2-0.4,0.3-0.7c0.2-0.8,0.1-1.7-0.5-2.4c-0.8-1.2,0.3-4,0.5-5.4c0.5-3.1,0.7-6.3,1-9.5c0.5-5.9,0.3-11.9-0.9-17.7
					c-1-5-3.3-10.2-8.1-12.7C301.8,280.8,299.1,280.7,296.2,280.9z"/>
				<path class="st5" d="M255.5,271c0.1-0.7-0.4-1.3-1.1-1.3c-0.7-0.1-1.3,0.4-1.3,1.1l-1.6,16.9c-4.9-3.3-9.7-6.7-14.6-10l1.8-18.2
					c0.1-0.7-0.4-1.3-1.1-1.3c-0.7-0.1-1.3,0.4-1.3,1.1l-1.6,16.9c-5.4-3.7-10.8-7.4-16.2-11.1c0,0,0,0-0.1,0
					c-1.3-0.9-2.7,1.1-1.4,2c0,0,0,0,0.1,0c5.4,3.7,10.8,7.4,16.2,11.1l-15.2,7.6c-0.6,0.3-0.9,1-0.6,1.7c0.3,0.6,1,0.9,1.7,0.6
					l16.4-8.2c4.9,3.3,9.7,6.7,14.6,10l-15.2,7.6c-0.6,0.3-0.9,1-0.6,1.7c0.3,0.6,1,0.9,1.7,0.6l16.4-8.2
					c5.2,3.6,10.5,7.2,15.7,10.8l-15.2,7.6c-0.6,0.3-0.9,1-0.6,1.7c0.3,0.6,1,0.9,1.7,0.6l16.4-8.2c5.7,3.9,11.4,7.9,17.1,11.8
					l-15.2,7.6c-0.6,0.3-0.9,1-0.6,1.7c0.3,0.6,1,0.9,1.7,0.6l16.4-8.2c5.1,3.5,10.2,7,15.3,10.5c1.3,0.9,2.7-1.1,1.4-2
					c-5.1-3.5-10.2-7-15.3-10.5l1.8-18.2c0.1-0.7-0.4-1.3-1.1-1.3c-0.7-0.1-1.3,0.4-1.3,1.1l-1.6,16.9c-5.7-3.9-11.4-7.9-17.1-11.8
					l1.8-18.2c0.1-0.7-0.4-1.3-1.1-1.3c-0.7-0.1-1.3,0.4-1.3,1.1l-1.6,16.9c-5.2-3.6-10.5-7.2-15.7-10.8L255.5,271z"/>
			</g>
			<g>
				<path class="st6" d="M337.2,262.2c-2.7-0.7-5.6-0.5-8.2-1.5c-3.2-1.1,0.7-11.2,1.2-13.9c1.3-6.7,0.9-14.2-3.5-19.7
					c-4.2-5.2-11.6-7.1-17.7-4.6c-4.1,1.7-7.2,4.8-10.3,7.8c-0.9-2-2-3.9-2.6-5c-3.4-6.9-7.4-13.6-11.9-19.9
					c-3.5-4.8-8.3-11-14.3-12.6c-6.7-1.9-9.7,5.4-10.8,10.6c-0.1,0.4-0.2,0.9-0.2,1.3c-1.3-2.1-2.7-4.1-4.2-6.1
					c-4.3-6-12-9.6-18.6-5.2c-0.2,0.1-0.3,0.3-0.5,0.4c-0.2,0.1-0.4,0.2-0.5,0.3c-6.1,4.9-5.1,13.1-0.9,19c1.5,2,3.1,4,4.7,6
					c-5-0.8-10.3-0.7-13.2,3c-3.7,4.8,0.3,11.3,2.7,15.6c3.7,6.8,9.1,12.8,14.4,18.3c2.8,2.9,5.7,6.1,9,8.8c-3.6,2-7.2,4-10.2,7
					c-4.7,4.6-5.1,12.4-1.9,18c3.5,6.3,10.5,8.8,17.3,9.9c2.6,0.4,14.1-0.2,14.6,2.6c0.4,2.5-0.5,5.4-0.8,7.8
					c-0.6,3.6-0.2,7.3,1.3,10.6c2.9,6.4,9.8,9.1,16.2,10.6c7.4,1.6,15.3,1.4,22.8,0.7c4.1-0.4,8.1-1,12.2-1.6c1.9-0.3,6.2-2.1,8-1
					c0.9,0.8,2.1,0.9,3.1,0.6c0.3-0.1,0.6-0.2,0.9-0.4c0,0,0,0,0,0c0.1,0,0.1-0.1,0.2-0.1c0,0,0.1,0,0.1-0.1c0,0,0.1,0,0.1-0.1
					c0.1,0,0.1-0.1,0.2-0.2c0,0,0,0,0,0c0.2-0.2,0.4-0.4,0.6-0.7c0.6-0.9,0.8-2.1,0.4-3.2c-0.5-1.9,2-4.8,2.8-6.4
					c1.9-3.6,3.5-7.4,5.2-11.1c3.1-7,5.5-14.4,6.5-22c0.9-6.5,0.3-13.9-4.5-18.9C344,264.4,340.7,263.1,337.2,262.2z"/>
				<path class="st7" d="M291.8,232.7c0.4-0.8,0-1.7-0.8-2.1c-0.8-0.4-1.7,0-2.1,0.8l-9.2,19.9c-4.5-6.2-9-12.3-13.6-18.5l9.9-21.5
					c0.4-0.8,0-1.7-0.8-2.1c-0.8-0.4-1.7,0-2.1,0.8l-9.2,19.9c-5-6.8-10-13.7-15-20.5c0,0,0-0.1-0.1-0.1c-1.2-1.7-3.8,0.2-2.6,1.9
					c0,0,0,0.1,0.1,0.1c5,6.8,10,13.7,15,20.5l-21.7,2.8c-0.9,0.1-1.5,0.9-1.4,1.8c0.1,0.9,0.9,1.5,1.8,1.4l23.5-3
					c4.5,6.2,9,12.3,13.6,18.5l-21.7,2.8c-0.9,0.1-1.5,0.9-1.4,1.8c0.1,0.9,0.9,1.5,1.8,1.4l23.5-3c4.9,6.6,9.7,13.3,14.6,19.9
					l-21.7,2.8c-0.9,0.1-1.5,0.9-1.4,1.8c0.1,0.9,0.9,1.5,1.8,1.4l23.5-3c5.3,7.2,10.6,14.4,15.9,21.7l-21.7,2.8
					c-0.9,0.1-1.5,0.9-1.4,1.8c0.1,0.9,0.9,1.5,1.8,1.4l23.5-3c4.7,6.4,9.5,12.9,14.2,19.3c1.2,1.7,3.8-0.2,2.6-1.9
					c-4.7-6.4-9.5-12.9-14.2-19.3l9.9-21.5c0.4-0.8,0-1.7-0.8-2.1c-0.8-0.4-1.7,0-2.1,0.8l-9.2,19.9c-5.3-7.2-10.6-14.4-15.9-21.7
					l9.9-21.5c0.4-0.8,0-1.7-0.8-2.1c-0.8-0.4-1.7,0-2.1,0.8l-9.2,19.9c-4.9-6.6-9.7-13.3-14.6-19.9L291.8,232.7z"/>
			</g>
		</g>
		<g>
			<path class="st6" d="M450.6,286.4c-3.5,2.4-4.7,6.7-5.1,10.7c-0.4,4.7,0.1,9.4,1.1,14c0.5,2.4,1,4.9,1.7,7.3
				c0.3,1,1.4,3.1,0.9,4.2c-0.4,0.6-0.4,1.3-0.2,1.9c0.1,0.2,0.2,0.3,0.3,0.5c0,0,0,0,0,0c0,0,0.1,0.1,0.1,0.1c0,0,0,0,0,0.1
				c0,0,0,0,0,0.1c0,0,0.1,0.1,0.1,0.1c0,0,0,0,0,0c0.1,0.1,0.3,0.2,0.5,0.3c0.6,0.3,1.3,0.4,1.9,0.1c1.2-0.4,3.5,1.2,4.7,1.6
				c2.4,0.9,4.7,1.7,7.1,2.5c4.4,1.4,9.1,2.5,13.7,2.5c4,0,8.5-0.8,11-4.3c1.3-1.8,2-3.9,2.1-6.2c0.1-1.5-0.1-3.3,0.5-4.8
				c0.6-1.6,7.4,0.2,9,0.3c4.2,0.2,8.7-0.4,11.6-3.8c2.6-3,3.4-7.6,1.1-11c-1.4-2.2-3.3-3.8-5.2-5.5c2.3-1.2,4.4-2.7,6.5-4.1
				c3.9-2.6,7.9-5.5,10.9-9.1c1.9-2.3,5.1-5.7,3.6-9c-1.2-2.6-4.4-3.3-7.5-3.5c1.2-1,2.4-1.9,3.6-3c3.3-3,4.9-7.8,1.9-11.5
				c-0.1-0.1-0.2-0.2-0.3-0.3c-0.1-0.1-0.1-0.2-0.2-0.3c-3.4-3.5-8.5-2.3-11.8,0.7c-1.1,1-2.2,2.1-3.3,3.1c0-0.3,0-0.6,0-0.8
				c0-3.3-0.8-8-5.1-7.7c-3.8,0.2-7.4,3.3-10.1,5.7c-3.5,3.2-6.7,6.7-9.6,10.4c-0.5,0.6-1.4,1.6-2.2,2.7c-1.5-2.2-3-4.5-5.2-6
				c-3.3-2.3-8-2.1-11.2,0.5c-3.4,2.7-4.5,7.2-4.6,11.3c0,1.7,1,8.2-1,8.5c-1.7,0.2-3.4-0.2-5.1-0.2
				C454.6,284.7,452.5,285.1,450.6,286.4z"/>
			<path class="st7" d="M487.7,272.8c-0.1-0.5,0.2-1,0.7-1.2c0.5-0.1,1,0.2,1.2,0.7l2.9,13.1c3.5-3.1,7-6.2,10.4-9.3l-3.2-14.1
				c-0.1-0.5,0.2-1,0.7-1.2c0.5-0.1,1,0.2,1.2,0.7l2.9,13.1c3.9-3.4,7.7-6.9,11.6-10.3c0,0,0,0,0,0c0.9-0.8,2.2,0.6,1.3,1.5
				c0,0,0,0,0,0c-3.9,3.4-7.7,6.9-11.6,10.3l12.6,4.4c0.5,0.2,0.8,0.7,0.6,1.2c-0.2,0.5-0.7,0.8-1.2,0.6l-13.6-4.8
				c-3.5,3.1-7,6.2-10.4,9.3l12.6,4.4c0.5,0.2,0.8,0.7,0.6,1.2c-0.2,0.5-0.7,0.8-1.2,0.6l-13.6-4.8c-3.8,3.3-7.5,6.7-11.2,10
				l12.6,4.4c0.5,0.2,0.8,0.7,0.6,1.2c-0.2,0.5-0.7,0.8-1.2,0.6l-13.7-4.8c-4.1,3.6-8.2,7.3-12.3,10.9l12.6,4.4
				c0.5,0.2,0.8,0.7,0.6,1.2c-0.2,0.5-0.7,0.8-1.2,0.6l-13.6-4.8c-3.6,3.2-7.3,6.5-10.9,9.7c-0.9,0.8-2.2-0.6-1.3-1.5
				c3.6-3.2,7.3-6.5,10.9-9.7l-3.2-14.1c-0.1-0.5,0.2-1,0.7-1.2c0.5-0.1,1,0.2,1.2,0.7l2.9,13.1c4.1-3.6,8.2-7.3,12.3-10.9
				l-3.2-14.1c-0.1-0.5,0.2-1,0.7-1.2c0.5-0.1,1,0.2,1.2,0.7l2.9,13.1c3.7-3.3,7.5-6.7,11.2-10L487.7,272.8z"/>
		</g>
		<g>
			<path class="st4" d="M461.4,173.7c-1.5,2.1-1.4,4.9-0.7,7.4c0.8,2.8,2,5.5,3.6,8c0.8,1.3,1.6,2.7,2.5,3.9
				c0.4,0.5,1.5,1.5,1.4,2.3c-0.1,0.4,0,0.9,0.3,1.2c0.1,0.1,0.2,0.2,0.3,0.2c0,0,0,0,0,0c0,0,0.1,0,0.1,0c0,0,0,0,0,0c0,0,0,0,0,0
				c0,0,0.1,0,0.1,0c0,0,0,0,0,0c0.1,0,0.2,0.1,0.3,0.1c0.4,0.1,0.9,0,1.2-0.4c0.6-0.5,2.3,0,3.1,0c1.6,0,3.1,0,4.7,0
				c2.9-0.1,5.9-0.4,8.6-1.4c2.3-0.9,4.8-2.3,5.6-4.8c0.4-1.3,0.3-2.7,0-4.1c-0.3-0.9-0.7-2-0.7-2.9c0-1.1,4.4-1.4,5.4-1.7
				c2.5-0.8,5-2.1,6-4.6c0.9-2.3,0.4-5.2-1.6-6.7c-1.3-1-2.7-1.6-4.2-2.1c1.1-1.2,2-2.5,3-3.8c1.7-2.4,3.5-4.9,4.5-7.7
				c0.7-1.8,1.8-4.4,0.2-6c-1.3-1.3-3.3-1.1-5.1-0.5c0.5-0.8,1-1.6,1.5-2.5c1.3-2.4,1.3-5.6-1.3-7.1c-0.1,0-0.1-0.1-0.2-0.1
				c-0.1,0-0.1-0.1-0.2-0.1c-2.7-1.3-5.5,0.4-6.8,2.9c-0.4,0.8-0.9,1.7-1.3,2.5c-0.1-0.2-0.1-0.3-0.2-0.5c-0.7-1.9-2.2-4.5-4.6-3.5
				c-2.2,0.9-3.7,3.5-4.8,5.5c-1.4,2.6-2.6,5.3-3.5,8.1c-0.2,0.5-0.5,1.2-0.7,2c-1.3-1-2.7-2-4.3-2.4c-2.4-0.6-5.1,0.5-6.5,2.6
				c-1.4,2.3-1.2,5.2-0.3,7.6c0.3,1,2.3,4.6,1.2,5.2c-1,0.5-2.1,0.6-3,1C463.4,171.9,462.3,172.6,461.4,173.7z"/>
			<path class="st5" d="M480.4,158c-0.2-0.3-0.1-0.7,0.2-0.8c0.3-0.2,0.7-0.1,0.8,0.2l4.5,7.1c1.4-2.6,2.8-5.1,4.2-7.7l-4.8-7.6
				c-0.2-0.3-0.1-0.7,0.2-0.8c0.3-0.2,0.7-0.1,0.8,0.2l4.5,7.1c1.6-2.8,3.1-5.7,4.7-8.5c0,0,0,0,0,0c0.4-0.7,1.4-0.1,1.1,0.6
				c0,0,0,0,0,0c-1.6,2.8-3.1,5.7-4.7,8.5l8.4,0c0.3,0,0.6,0.3,0.6,0.6c0,0.3-0.3,0.6-0.6,0.6l-9,0c-1.4,2.6-2.8,5.1-4.2,7.7l8.4,0
				c0.3,0,0.6,0.3,0.6,0.6c0,0.3-0.3,0.6-0.6,0.6l-9,0c-1.5,2.8-3,5.5-4.5,8.3l8.4,0c0.3,0,0.6,0.3,0.6,0.6c0,0.3-0.3,0.6-0.6,0.6
				l-9,0c-1.6,3-3.3,6-4.9,9l8.4,0c0.3,0,0.6,0.3,0.6,0.6c0,0.3-0.3,0.6-0.6,0.6l-9,0c-1.5,2.7-2.9,5.3-4.4,8
				c-0.4,0.7-1.4,0.1-1.1-0.6c1.5-2.7,2.9-5.3,4.4-8l-4.8-7.6c-0.2-0.3-0.1-0.7,0.2-0.8c0.3-0.2,0.7-0.1,0.8,0.2l4.5,7.1
				c1.6-3,3.3-6,4.9-9l-4.8-7.6c-0.2-0.3-0.1-0.7,0.2-0.8c0.3-0.2,0.7-0.1,0.8,0.2l4.5,7.1c1.5-2.8,3-5.5,4.5-8.3L480.4,158z"/>
		</g>
		<g>
			<polygon class="st8" points="283,79.9 275.8,79.9 282.1,65.3 289.3,65.3 			"/>
			<polygon class="st8" points="293.5,79.9 286.3,79.9 292.6,65.3 299.8,65.3 			"/>
			<polygon class="st8" points="303.9,79.9 296.7,79.9 303,65.3 310.2,65.3 			"/>
			<polygon class="st9" points="314.4,79.9 307.2,79.9 313.5,65.3 320.7,65.3 			"/>
			<polygon class="st9" points="324.8,79.9 317.6,79.9 323.9,65.3 331.1,65.3 			"/>
			<polygon class="st9" points="335.3,79.9 328.1,79.9 334.4,65.3 341.6,65.3 			"/>
			<polygon class="st9" points="345.7,79.9 338.5,79.9 344.8,65.3 352,65.3 			"/>
		</g>
		<g>
			<path class="st10" d="M519.2,108.9c0,3.3-2.7,6-6,6h-29.8c-3.3,0-6-2.7-6-6V87.1c0-3.3,2.7-6,6-6h29.8c3.3,0,6,2.7,6,6V108.9z"/>
			<g>
				<rect x="492.4" y="96.5" class="st8" width="11.9" height="3.2"/>
				<rect x="496.7" y="92.1" class="st8" width="3.2" height="11.9"/>
			</g>
		</g>
		<path class="st8" d="M293.6,118.6v-3.2H289c-0.2-0.7-0.4-1.3-0.8-1.9l3.2-3.2l-2.2-2.2l-3.2,3.2c-0.6-0.3-1.2-0.6-1.9-0.8v-4.6
			H281v4.6c-0.7,0.2-1.3,0.4-1.9,0.8l-3.2-3.2l-2.2,2.2l3.2,3.2c-0.3,0.6-0.6,1.2-0.8,1.9h-4.6v3.2h4.6c0.2,0.7,0.4,1.3,0.8,1.9
			l-3.2,3.2l2.2,2.2l3.2-3.2c0.6,0.3,1.2,0.6,1.9,0.8v4.6l3.2,0v-4.6c0.7-0.2,1.3-0.4,1.9-0.8l3.2,3.2l2.2-2.2l-3.2-3.2
			c0.3-0.6,0.6-1.2,0.8-1.9H293.6z M282.6,120c-1.7,0-3-1.4-3-3s1.4-3,3-3c1.7,0,3,1.4,3,3S284.2,120,282.6,120z"/>
		<path class="st4" d="M382.9,75.4v-1.9h-2.8c-0.1-0.4-0.3-0.8-0.5-1.1l2-2l-1.4-1.4l-2,2c-0.3-0.2-0.7-0.4-1.1-0.5v-2.8h-1.9v2.8
			c-0.4,0.1-0.8,0.3-1.1,0.5l-2-2l-1.4,1.4l2,2c-0.2,0.3-0.4,0.7-0.5,1.1h-2.8v1.9h2.8c0.1,0.4,0.3,0.8,0.5,1.1l-2,2l1.4,1.4l2-2
			c0.3,0.2,0.7,0.4,1.1,0.5v2.8l1.9,0v-2.8c0.4-0.1,0.8-0.3,1.1-0.5l1.9,2l1.4-1.4l-2-2c0.2-0.3,0.4-0.7,0.5-1.1H382.9z M376.2,76.3
			c-1,0-1.8-0.8-1.8-1.8c0-1,0.8-1.8,1.8-1.8c1,0,1.8,0.8,1.8,1.8C378,75.5,377.2,76.3,376.2,76.3z"/>
		<g>
			<path class="st11" d="M455.7,97.8h-136c-0.8,0-1.5,0.1-2.2,0.3l-0.4-1.5l-3.6,3.6c-0.3,0.2-0.5,0.5-0.8,0.8l-0.1,0.1l0,0
				c-1.4,1.6-2.3,3.8-2.3,6.1v235.7c0,5.2,4.2,9.3,9.3,9.3h136c5.2,0,9.3-4.2,9.3-9.3V107.2C465,102,460.8,97.8,455.7,97.8z"/>
			<g>
				<linearGradient id="SVGID_1_" gradientUnits="userSpaceOnUse" x1="391.2571" y1="348.582" x2="391.2571" y2="94.2371">
					<stop  offset="0" style="stop-color:#3D1F81"/>
					<stop  offset="1" style="stop-color:#6B34A6"/>
				</linearGradient>
				<path class="st12" d="M468.6,339.2c0,5.2-4.2,9.3-9.3,9.3h-136c-5.2,0-9.3-4.2-9.3-9.3V103.6c0-5.2,4.2-9.3,9.3-9.3h136
					c5.2,0,9.3,4.2,9.3,9.3V339.2z"/>
				<g>
					<path class="st13" d="M418.3,110.5c0,1.1-0.9,2-2,2H365c-1.1,0-2-0.9-2-2l0,0c0-1.1,0.9-2,2-2h51.2
						C417.4,108.5,418.3,109.4,418.3,110.5L418.3,110.5z"/>
					<path class="st13" d="M433,110.5c0,1.9-1.6,3.5-3.5,3.5c-1.9,0-3.5-1.6-3.5-3.5c0-1.9,1.6-3.5,3.5-3.5
						C431.5,107,433,108.6,433,110.5z"/>
				</g>
			</g>
		</g>
		<g>
			<path class="st14" d="M367.4,183c0,4.5-3.6,8.1-8.1,8.1h-93.4c-4.5,0-8.1-3.6-8.1-8.1v-36.1c0-4.5,3.6-8.1,8.1-8.1h93.4
				c4.5,0,8.1,3.6,8.1,8.1V183z"/>
			<path class="st15" d="M370.1,180.3c0,4.5-3.6,8.1-8.1,8.1h-93.4c-4.5,0-8.1-3.6-8.1-8.1v-36.1c0-4.5,3.6-8.1,8.1-8.1H362
				c4.5,0,8.1,3.6,8.1,8.1V180.3z"/>
			<text transform="matrix(1 0 0 1 283.0293 173.0142)" class="st13 st16 st17 st18">&lt;/&gt;</text>
		</g>
		<g>
			<rect x="383.7" y="131.4" class="st19" width="74.9" height="4.8"/>
			<rect x="427" y="140.3" class="st19" width="31.6" height="4.8"/>
			<rect x="445.8" y="163.6" class="st19" width="12.8" height="4.8"/>
			<rect x="403.3" y="150" class="st19" width="55.4" height="4.8"/>
			<rect x="387" y="163.6" class="st19" width="50.2" height="4.8"/>
		</g>
		<polyline class="st20" points="403.4,182.8 403.4,217 349.6,217 349.6,250.2 		"/>
		<polyline class="st20" points="420,301.4 420,264.4 386.8,264.4 		"/>
		<g>
			<path class="st21" d="M387.4,283.3c0,4.5-3.6,8.1-8.1,8.1h-80.8c-4.5,0-8.1-3.6-8.1-8.1v-36.1c0-4.5,3.6-8.1,8.1-8.1h80.8
				c4.5,0,8.1,3.6,8.1,8.1V283.3z"/>
			<path class="st22" d="M390.1,280.6c0,4.5-3.6,8.1-8.1,8.1h-80.8c-4.5,0-8.1-3.6-8.1-8.1v-36.1c0-4.5,3.6-8.1,8.1-8.1H382
				c4.5,0,8.1,3.6,8.1,8.1V280.6z"/>
			<text transform="matrix(1 0 0 1 312.126 272.8169)" class="st13 st16 st23 st24">C++</text>
		</g>
		<g>
			<g>
				<g>
					<g>
						<g>
							<g>
								<rect x="427.6" y="234.4" class="st25" width="22.5" height="22.3"/>
							</g>
							<rect x="437.4" y="250.9" class="st26" width="2.3" height="4.1"/>
							<rect x="437.4" y="243.5" class="st26" width="2.3" height="4.1"/>
							<rect x="437.4" y="236.1" class="st26" width="2.3" height="4.1"/>
						</g>
					</g>
					<g>
						<g>
							<g>
								<rect x="427.6" y="256.7" class="st25" width="22.5" height="22.3"/>
							</g>
							<rect x="437.4" y="273.3" class="st26" width="2.3" height="4.1"/>
							<rect x="437.4" y="265.8" class="st26" width="2.3" height="4.1"/>
							<rect x="437.4" y="258.4" class="st26" width="2.3" height="4.1"/>
						</g>
					</g>
					<g>
						<g>
							<g>
								<rect x="427.6" y="279" class="st25" width="22.5" height="22.3"/>
							</g>
							<rect x="437.4" y="295.6" class="st26" width="2.3" height="4.1"/>
							<rect x="437.4" y="288.1" class="st26" width="2.3" height="4.1"/>
							<rect x="437.4" y="280.7" class="st26" width="2.3" height="4.1"/>
						</g>
					</g>
				</g>
			</g>
		</g>
		<g>
			<path class="st27" d="M533.8,237.3c0,4.5-3.6,8.1-8.1,8.1h-93.4c-4.5,0-8.1-3.6-8.1-8.1v-36.1c0-4.5,3.6-8.1,8.1-8.1h93.4
				c4.5,0,8.1,3.6,8.1,8.1V237.3z"/>
			<path class="st28" d="M536.5,234.6c0,4.5-3.6,8.1-8.1,8.1H435c-4.5,0-8.1-3.6-8.1-8.1v-36.1c0-4.5,3.6-8.1,8.1-8.1h93.4
				c4.5,0,8.1,3.6,8.1,8.1V234.6z"/>
			<text transform="matrix(1 0 0 1 444.7559 224.9058)"><tspan x="0" y="0" class="st13 st16 st29 st30">J</tspan><tspan x="13.2" y="0" class="st13 st16 st29 st31">A</tspan><tspan x="30.8" y="0" class="st13 st16 st29 st31">V</tspan><tspan x="47.1" y="0" class="st13 st16 st29 st30">A</tspan></text>
		</g>
		<g>
			<g>
				<g>
					<g>
						<g>
							<g>
								<g>
									<rect x="340.7" y="197.6" class="st25" width="22.1" height="22.5"/>
								</g>
								<rect x="357" y="208" class="st26" width="4.1" height="2.3"/>
								<rect x="349.7" y="208" class="st26" width="4.1" height="2.3"/>
								<rect x="342.3" y="208" class="st26" width="4.1" height="2.3"/>
							</g>
						</g>
						<g>
							<g>
								<g>
									<rect x="362.8" y="197.6" class="st25" width="22.1" height="22.5"/>
								</g>
								<rect x="379.1" y="208" class="st26" width="4.1" height="2.3"/>
								<rect x="371.8" y="208" class="st26" width="4.1" height="2.3"/>
								<rect x="364.4" y="208" class="st26" width="4.1" height="2.3"/>
							</g>
						</g>
					</g>
				</g>
			</g>
			<g>
				<g>
					<g>
						<g>
							<g>
								<rect x="330.3" y="212.4" class="st25" width="22.5" height="18"/>
							</g>
							<rect x="340.8" y="213.7" class="st26" width="2.3" height="3.3"/>
							<rect x="340.8" y="219.7" class="st26" width="2.3" height="3.3"/>
							<rect x="340.8" y="225.7" class="st26" width="2.3" height="3.3"/>
						</g>
					</g>
				</g>
			</g>
		</g>
		<g>
			<rect x="337.9" y="309.3" class="st19" width="111.7" height="16.9"/>
			<text transform="matrix(1 0 0 1 351.3535 321.4336)" class="st32"><tspan x="0" y="0" class="st13 st33 st34 st35">C</tspan><tspan x="7.9" y="0" class="st13 st33 st34 st36">ONNE</tspan><tspan x="42" y="0" class="st13 st33 st34 st36">C</tspan><tspan x="50.4" y="0" class="st13 st33 st34 st36">TED</tspan></text>
		</g>
		<text transform="matrix(1 0 0 1 403.2529 79.8999)"><tspan x="0" y="0" class="st8 st16 st37 st36">P</tspan><tspan x="8" y="0" class="st8 st16 st37 st36">Y</tspan><tspan x="16.6" y="0" class="st8 st16 st37 st36">THON</tspan></text>
		<path class="st38" d="M528.9,166.3c0,2.2-1.8,4-4,4c-2.2,0-4-1.8-4-4s1.8-4,4-4C527.1,162.3,528.9,164.1,528.9,166.3z"/>
		<path class="st39" d="M545.3,133.8c0,1.6-1.3,2.9-2.9,2.9s-2.9-1.3-2.9-2.9c0-1.6,1.3-2.9,2.9-2.9S545.3,132.2,545.3,133.8z"/>
		<path class="st39" d="M252.6,99.6c0,1.6-1.3,2.9-2.9,2.9c-1.6,0-2.9-1.3-2.9-2.9c0-1.6,1.3-2.9,2.9-2.9
			C251.3,96.7,252.6,98,252.6,99.6z"/>
	</g>
</g>
</svg>
