<svg id="visual" viewBox="0 0 960 540" width="960" height="540" xmlns="http://www.w3.org/2000/svg" xmlns:xlink="http://www.w3.org/1999/xlink" version="1.1"><rect x="0" y="0" width="960" height="540" fill="#001122"></rect><defs><linearGradient id="grad1_0" x1="43.8%" y1="0%" x2="100%" y2="100%"><stop offset="14.444444444444446%" stop-color="#001122" stop-opacity="1"></stop><stop offset="85.55555555555554%" stop-color="#001122" stop-opacity="1"></stop></linearGradient></defs><defs><linearGradient id="grad2_0" x1="0%" y1="0%" x2="56.3%" y2="100%"><stop offset="14.444444444444446%" stop-color="#001122" stop-opacity="1"></stop><stop offset="85.55555555555554%" stop-color="#001122" stop-opacity="1"></stop></linearGradient></defs><g transform="translate(960, 0)"><path d="M0 486C-68.5 484.3 -136.9 482.7 -186 449C-235 415.3 -264.7 349.6 -299.8 299.8C-334.9 250 -375.5 216.1 -407.4 168.8C-439.4 121.4 -462.7 60.7 -486 0L0 0Z" fill="#FCAF3C"></path></g><g transform="translate(0, 540)"><path d="M0 -486C65.9 -482.2 131.7 -478.4 186 -449C240.3 -419.6 283 -364.6 312.5 -312.5C342.1 -260.4 358.5 -211.2 385.3 -159.6C412 -108 449 -54 486 0L0 0Z" fill="#FCAF3C"></path></g></svg>