<svg id="visual" viewBox="0 0 600 900" width="600" height="900" xmlns="http://www.w3.org/2000/svg" xmlns:xlink="http://www.w3.org/1999/xlink" version="1.1"><rect x="0" y="0" width="600" height="900" fill="#001122"></rect><defs><linearGradient id="grad1_0" x1="0%" y1="0%" x2="100%" y2="100%"><stop offset="30%" stop-color="#001122" stop-opacity="1"></stop><stop offset="70%" stop-color="#001122" stop-opacity="1"></stop></linearGradient></defs><defs><linearGradient id="grad2_0" x1="0%" y1="0%" x2="100%" y2="100%"><stop offset="30%" stop-color="#001122" stop-opacity="1"></stop><stop offset="70%" stop-color="#001122" stop-opacity="1"></stop></linearGradient></defs><g transform="translate(600, 0)"><path d="M0 486.7C-64.1 480.2 -128.1 473.6 -186.3 449.7C-244.4 425.8 -296.7 384.5 -336.6 336.6C-376.4 288.6 -403.9 234 -426.8 176.8C-449.8 119.6 -468.3 59.8 -486.7 0L0 0Z" fill="#FCAF3C"></path></g><g transform="translate(0, 900)"><path d="M0 -486.7C62.8 -464.6 125.5 -442.4 168 -405.6C210.5 -368.8 232.7 -317.4 282.8 -282.8C333 -248.3 411.1 -230.6 449.7 -186.3C488.3 -141.9 487.5 -71 486.7 0L0 0Z" fill="#FCAF3C"></path></g></svg>