<?xml version="1.0" encoding="utf-8"?>
<!-- Generator: Adobe Illustrator 22.0.0, SVG Export Plug-In . SVG Version: 6.00 Build 0)  -->
<svg version="1.0" id="Calque_1" xmlns="http://www.w3.org/2000/svg" xmlns:xlink="http://www.w3.org/1999/xlink" x="0px" y="0px"
	 viewBox="0 0 780 1200" style="enable-background:new 0 0 780 1200;" xml:space="preserve">
<style type="text/css">
	.st0{fill:#001220;}
	.st1{fill:#FFAE2C;stroke:#231F20;stroke-width:13;stroke-miterlimit:10;}
	.st2{fill:#FFAE2C;stroke:#000000;stroke-width:8;stroke-miterlimit:10;}
	.st3{fill:#D6E3FE;}
	.st4{fill:#BC74E1;}
	.st5{fill:#A364C8;}
	.st6{fill:#08E1B6;}
	.st7{fill:#04C89B;}
	.st8{fill:#6833A3;}
	.st9{opacity:0.4;fill:#6833A3;}
	.st10{fill:none;stroke:#6833A3;stroke-miterlimit:10;}
	.st11{fill:#7B9FD4;}
	.st12{fill:url(#SVGID_1_);}
	.st13{fill:#FFFFFF;}
	.st14{fill:#5B8CDD;}
	.st15{fill:#A9C7F9;}
	.st16{font-family:'Montserrat-Black';}
	.st17{font-size:33.8634px;}
	.st18{letter-spacing:6;}
	.st19{opacity:0.4;fill:#FFFFFF;}
	.st20{opacity:0.4;fill:none;stroke:#402083;stroke-width:4;stroke-miterlimit:10;}
	.st21{fill:#008487;}
	.st22{fill:#00CBDC;}
	.st23{font-size:28.6277px;}
	.st24{letter-spacing:5;}
	.st25{fill:none;}
	.st26{fill-rule:evenodd;clip-rule:evenodd;fill:#FFFFFF;}
	.st27{fill:#235098;}
	.st28{fill:#4883ED;}
	.st29{font-size:24.4695px;}
	.st30{letter-spacing:4;}
	.st31{letter-spacing:3;}
	.st32{opacity:0.4;}
	.st33{font-family:'Montserrat-ExtraBold';}
	.st34{font-size:10.9324px;}
	.st35{letter-spacing:1;}
	.st36{letter-spacing:2;}
	.st37{font-size:11.705px;}
	.st38{fill:none;stroke:#6833A3;stroke-width:3;stroke-miterlimit:10;}
	.st39{fill:none;stroke:#6833A3;stroke-width:2;stroke-miterlimit:10;}
</style>
<g>
	<rect x="0" class="st0" width="780" height="1200"/>
	<path class="st1" d="M0,443.2c164,0,328.1,0,492.1,0c25.5,23.5,65,67.6,94.5,141.5c23.6,59.2,31.2,113.1,35.2,142.5
		c3.5,26.1,8.7,75.5,5.3,137.8c-5.7,105.4-32.1,178.1-39.1,196.6c-17,44.8-33.3,69.2-37.3,75.2c-20.4,30-41.1,47.7-55.4,57.9
		c-165.1,0-330.2,0-495.3,0"/>
	<path class="st2" d="M564.5,443.2h-81.3c-82.8,0-150-67.2-150-150V143.8c0-77.7,63-140.7,140.7-140.7h278.3
		c10.9,0,19.7,8.8,19.7,19.7v213C771.9,350.4,679,443.2,564.5,443.2z"/>
	<g>
		<path class="st3" d="M719.2,363.4c0,10-80.2,18.2-179.1,18.2c-98.9,0-179.1-8.1-179.1-18.2c0-10,80.2-18.2,179.1-18.2
			C639,345.2,719.2,353.3,719.2,363.4z"/>
		<g>
			<g>
				<path class="st4" d="M455.3,296.5c-2.3,0.2-4.5,1.1-6.7,1.1c-2.8,0-2.5-8.8-2.8-11.1c-0.8-5.5-3.1-11.2-8-14.3
					c-4.6-2.9-10.9-2.3-14.9,1.2c-2.7,2.4-4.3,5.6-5.9,8.8c-1.3-1.3-2.6-2.5-3.4-3.2c-4.5-4.4-9.3-8.5-14.5-12.1
					c-4-2.8-9.3-6.2-14.4-5.9c-5.7,0.4-6,6.7-5.4,11.1c0.1,0.4,0.1,0.7,0.2,1.1c-1.6-1.2-3.2-2.4-4.8-3.6c-4.9-3.5-11.8-4.2-15.8,1
					c-0.1,0.2-0.2,0.3-0.3,0.5c-0.1,0.1-0.2,0.2-0.3,0.4c-3.4,5.4-0.4,11.5,4.4,14.9c1.7,1.2,3.4,2.3,5.2,3.3
					c-4.1,0.7-8.1,2.2-9.3,5.9c-1.5,4.7,3.3,8.6,6.2,11.3c4.7,4.3,10.4,7.4,16,10.3c3,1.5,6.1,3.2,9.3,4.3c-2.3,2.5-4.5,5-6,8.1
					c-2.4,4.9-0.6,10.9,3.3,14.4c4.4,3.9,10.5,4,16,3c2.1-0.4,10.8-3.9,11.9-1.9c1,1.8,1.1,4.3,1.4,6.3c0.5,2.9,1.8,5.7,3.8,7.8
					c3.9,4.1,10,4.4,15.3,3.8c6.1-0.7,12.2-3,17.8-5.6c3-1.4,6-3,9-4.5c1.4-0.7,4.2-3.3,5.9-2.9c0.9,0.3,1.8,0.1,2.6-0.4
					c0.2-0.2,0.4-0.3,0.6-0.5c0,0,0,0,0,0c0-0.1,0.1-0.1,0.1-0.2c0,0,0-0.1,0.1-0.1c0,0,0-0.1,0.1-0.1c0-0.1,0.1-0.1,0.1-0.2
					c0,0,0,0,0,0c0.1-0.2,0.2-0.5,0.3-0.7c0.2-0.9,0.1-1.8-0.6-2.5c-0.9-1.3,0.3-4.3,0.5-5.7c0.5-3.3,0.7-6.7,1-10
					c0.5-6.2,0.3-12.6-0.9-18.7c-1.1-5.2-3.5-10.8-8.5-13.4C461.2,296.4,458.3,296.2,455.3,296.5z"/>
				<path class="st5" d="M412.4,286c0.1-0.7-0.5-1.4-1.2-1.4c-0.7-0.1-1.4,0.5-1.4,1.2l-1.7,17.8c-5.1-3.5-10.3-7.1-15.4-10.6
					l1.8-19.2c0.1-0.7-0.5-1.4-1.2-1.4c-0.7-0.1-1.4,0.5-1.4,1.2l-1.7,17.8c-5.7-3.9-11.4-7.8-17.1-11.8c0,0,0,0-0.1,0
					c-1.4-1-2.9,1.2-1.5,2.1c0,0,0,0,0.1,0c5.7,3.9,11.4,7.8,17.1,11.8l-16,8c-0.6,0.3-0.9,1.1-0.6,1.7c0.3,0.6,1.1,0.9,1.7,0.6
					l17.3-8.6c5.1,3.5,10.3,7.1,15.4,10.6l-16,8c-0.6,0.3-0.9,1.1-0.6,1.7c0.3,0.6,1.1,0.9,1.7,0.6l17.3-8.6
					c5.5,3.8,11.1,7.6,16.6,11.4l-16,8c-0.6,0.3-0.9,1.1-0.6,1.7c0.3,0.6,1.1,0.9,1.7,0.6l17.3-8.6c6,4.1,12.1,8.3,18.1,12.4l-16,8
					c-0.6,0.3-0.9,1.1-0.6,1.7c0.3,0.6,1.1,0.9,1.7,0.6l17.3-8.6c5.4,3.7,10.8,7.4,16.1,11.1c1.4,1,2.9-1.2,1.5-2.1
					c-5.4-3.7-10.8-7.4-16.1-11.1l1.8-19.2c0.1-0.7-0.5-1.4-1.2-1.4c-0.7-0.1-1.3,0.5-1.4,1.2l-1.7,17.8c-6-4.1-12.1-8.3-18.1-12.4
					l1.8-19.2c0.1-0.7-0.5-1.4-1.2-1.4c-0.7-0.1-1.4,0.5-1.4,1.2l-1.7,17.8c-5.5-3.8-11.1-7.6-16.6-11.4L412.4,286z"/>
			</g>
			<g>
				<path class="st6" d="M498.5,276.7c-2.9-0.7-5.9-0.6-8.7-1.6c-3.4-1.2,0.8-11.8,1.3-14.7c1.3-7.1,1-15-3.7-20.8
					c-4.4-5.5-12.3-7.4-18.7-4.8c-4.3,1.7-7.6,5-10.9,8.3c-1-2.1-2.1-4.1-2.7-5.3c-3.6-7.3-7.8-14.4-12.6-21
					c-3.7-5.1-8.8-11.6-15.1-13.3c-7.1-2-10.2,5.7-11.3,11.2c-0.1,0.5-0.2,0.9-0.2,1.4c-1.4-2.2-2.9-4.3-4.4-6.4
					c-4.5-6.3-12.6-10.2-19.7-5.5c-0.2,0.1-0.4,0.3-0.5,0.4c-0.2,0.1-0.4,0.2-0.6,0.3c-6.4,5.2-5.4,13.9-0.9,20.1
					c1.6,2.2,3.2,4.2,5,6.3c-5.3-0.9-10.9-0.8-13.9,3.2c-3.9,5.1,0.3,11.9,2.8,16.5c3.9,7.2,9.6,13.5,15.2,19.3c3,3.1,6,6.5,9.5,9.2
					c-3.8,2.1-7.6,4.2-10.8,7.3c-5,4.9-5.3,13.1-2.1,19c3.7,6.7,11.1,9.3,18.2,10.5c2.7,0.5,14.9-0.2,15.4,2.8
					c0.4,2.6-0.5,5.7-0.9,8.3c-0.6,3.8-0.2,7.7,1.3,11.2c3.1,6.7,10.3,9.7,17.1,11.1c7.8,1.7,16.1,1.5,24,0.8
					c4.3-0.4,8.6-1.1,12.9-1.7c2-0.3,6.5-2.2,8.4-1c1,0.8,2.2,1,3.3,0.6c0.3-0.1,0.6-0.2,0.9-0.4c0,0,0,0,0,0c0.1,0,0.1-0.1,0.2-0.1
					c0,0,0.1,0,0.1-0.1c0,0,0.1-0.1,0.1-0.1c0.1-0.1,0.1-0.1,0.2-0.2c0,0,0,0,0,0c0.2-0.2,0.5-0.5,0.7-0.7c0.7-1,0.9-2.2,0.4-3.3
					c-0.5-2,2.1-5.1,3-6.7c2-3.8,3.7-7.8,5.5-11.7c3.3-7.4,5.8-15.2,6.8-23.2c0.9-6.9,0.3-14.7-4.7-19.9
					C505.7,279.1,502.3,277.6,498.5,276.7z"/>
				<path class="st7" d="M450.6,245.6c0.4-0.8,0-1.8-0.8-2.2c-0.8-0.4-1.8,0-2.2,0.8l-9.7,21c-4.8-6.5-9.5-13-14.3-19.5L434,223
					c0.4-0.8,0-1.8-0.8-2.2c-0.8-0.4-1.8,0-2.2,0.8l-9.7,21c-5.3-7.2-10.6-14.4-15.9-21.6c0,0,0-0.1-0.1-0.1c-1.3-1.7-4,0.2-2.7,2
					c0,0,0,0.1,0.1,0.1c5.3,7.2,10.6,14.4,15.9,21.6l-22.9,2.9c-0.9,0.1-1.6,1-1.5,1.9c0.1,0.9,1,1.6,1.9,1.5l24.8-3.2
					c4.8,6.5,9.5,13,14.3,19.5l-22.9,2.9c-0.9,0.1-1.6,1-1.5,1.9c0.1,0.9,1,1.6,1.9,1.5l24.8-3.2c5.1,7,10.3,14,15.4,21l-22.9,2.9
					c-0.9,0.1-1.6,1-1.5,1.9c0.1,0.9,1,1.6,1.9,1.5l24.8-3.2c5.6,7.6,11.2,15.2,16.8,22.9l-22.9,2.9c-0.9,0.1-1.6,1-1.5,1.9
					c0.1,0.9,1,1.6,1.9,1.5l24.8-3.2c5,6.8,10,13.6,15,20.4c1.3,1.8,4-0.2,2.7-2c-5-6.8-10-13.6-15-20.4l10.4-22.7
					c0.4-0.8,0-1.8-0.8-2.2c-0.8-0.4-1.8,0-2.2,0.8l-9.7,21c-5.6-7.6-11.2-15.2-16.8-22.9l10.4-22.7c0.4-0.8,0-1.8-0.8-2.2
					c-0.8-0.4-1.8,0-2.2,0.8l-9.7,21c-5.1-7-10.3-14-15.4-21L450.6,245.6z"/>
			</g>
		</g>
		<g>
			<path class="st6" d="M618.3,302.3c-3.7,2.5-5,7.1-5.3,11.3c-0.4,4.9,0.1,9.9,1.1,14.7c0.5,2.6,1,5.2,1.8,7.7
				c0.3,1.1,1.5,3.3,0.9,4.4c-0.4,0.6-0.5,1.4-0.2,2.1c0.1,0.2,0.2,0.4,0.3,0.5c0,0,0,0,0,0c0,0,0.1,0.1,0.1,0.1c0,0,0,0,0,0.1
				c0,0,0,0,0.1,0.1c0,0,0.1,0.1,0.1,0.1c0,0,0,0,0,0c0.1,0.1,0.3,0.3,0.5,0.4c0.6,0.3,1.4,0.4,2.1,0.1c1.3-0.5,3.7,1.2,4.9,1.7
				c2.5,0.9,5,1.8,7.5,2.6c4.6,1.5,9.6,2.6,14.5,2.6c4.2,0,8.9-0.9,11.6-4.5c1.4-1.9,2.1-4.2,2.2-6.5c0.1-1.6-0.1-3.5,0.5-5
				c0.7-1.7,7.9,0.2,9.5,0.3c4.4,0.2,9.2-0.5,12.2-4c2.7-3.1,3.6-8.1,1.2-11.6c-1.5-2.3-3.5-4-5.5-5.8c2.4-1.2,4.7-2.9,6.8-4.3
				c4.1-2.8,8.3-5.8,11.5-9.6c2.1-2.4,5.4-6,3.8-9.5c-1.3-2.7-4.6-3.5-7.9-3.7c1.3-1,2.5-2,3.8-3.1c3.5-3.1,5.2-8.2,2-12.1
				c-0.1-0.1-0.2-0.2-0.3-0.3c-0.1-0.1-0.1-0.2-0.2-0.3c-3.6-3.7-8.9-2.4-12.4,0.8c-1.2,1.1-2.3,2.2-3.4,3.3c0-0.3,0-0.6,0-0.9
				c0-3.4-0.9-8.4-5.4-8.1c-4,0.2-7.9,3.5-10.7,6c-3.7,3.3-7.1,7-10.2,10.9c-0.5,0.6-1.5,1.7-2.3,2.8c-1.5-2.4-3.1-4.7-5.5-6.3
				c-3.5-2.4-8.4-2.2-11.8,0.5c-3.5,2.9-4.8,7.6-4.9,12c0,1.8,1.1,8.7-1.1,8.9c-1.8,0.2-3.6-0.2-5.4-0.2
				C622.5,300.5,620.3,300.9,618.3,302.3z"/>
			<path class="st7" d="M657.4,287.9c-0.1-0.6,0.2-1.1,0.8-1.2c0.6-0.1,1.1,0.2,1.2,0.8l3.1,13.8c3.7-3.3,7.3-6.6,11-9.8l-3.4-14.9
				c-0.1-0.6,0.2-1.1,0.8-1.2c0.6-0.1,1.1,0.2,1.2,0.8l3.1,13.8c4.1-3.6,8.1-7.3,12.2-10.9c0,0,0,0,0,0c1-0.9,2.4,0.7,1.4,1.5
				c0,0,0,0,0,0c-4.1,3.6-8.1,7.3-12.2,10.9L690,296c0.5,0.2,0.8,0.8,0.6,1.3c-0.2,0.5-0.8,0.8-1.3,0.6l-14.4-5
				c-3.7,3.3-7.3,6.6-11,9.8l13.3,4.7c0.5,0.2,0.8,0.8,0.6,1.3c-0.2,0.5-0.8,0.8-1.3,0.6l-14.4-5c-4,3.5-7.9,7.1-11.9,10.6l13.3,4.7
				c0.5,0.2,0.8,0.8,0.6,1.3c-0.2,0.5-0.8,0.8-1.3,0.6l-14.4-5c-4.3,3.8-8.6,7.7-12.9,11.5l13.3,4.7c0.5,0.2,0.8,0.8,0.6,1.3
				c-0.2,0.5-0.8,0.8-1.3,0.6l-14.4-5c-3.8,3.4-7.7,6.9-11.5,10.3c-1,0.9-2.4-0.7-1.4-1.5c3.8-3.4,7.7-6.9,11.5-10.3l-3.4-14.9
				c-0.1-0.6,0.2-1.1,0.8-1.2c0.6-0.1,1.1,0.2,1.2,0.8l3.1,13.8c4.3-3.8,8.6-7.7,12.9-11.5l-3.4-14.9c-0.1-0.6,0.2-1.1,0.8-1.2
				c0.6-0.1,1.1,0.2,1.2,0.8l3.1,13.8c4-3.5,7.9-7.1,11.9-10.6L657.4,287.9z"/>
		</g>
		<g>
			<path class="st4" d="M629.7,183.4c-1.6,2.2-1.5,5.2-0.8,7.8c0.8,3,2.1,5.8,3.8,8.4c0.9,1.4,1.7,2.8,2.7,4.2
				c0.4,0.6,1.6,1.6,1.5,2.4c-0.1,0.5,0,0.9,0.3,1.2c0.1,0.1,0.2,0.2,0.3,0.2c0,0,0,0,0,0c0,0,0.1,0,0.1,0c0,0,0,0,0,0c0,0,0,0,0,0
				c0,0,0.1,0,0.1,0c0,0,0,0,0,0c0.1,0.1,0.2,0.1,0.4,0.1c0.4,0.1,0.9,0,1.2-0.4c0.7-0.5,2.5,0,3.2,0c1.7,0,3.3,0,5,0
				c3-0.1,6.2-0.5,9.1-1.5c2.5-0.9,5.1-2.4,5.9-5.1c0.4-1.4,0.4-2.9-0.1-4.3c-0.3-1-0.8-2.1-0.8-3.1c0-1.1,4.7-1.5,5.7-1.8
				c2.6-0.8,5.3-2.2,6.4-4.9c0.9-2.4,0.4-5.5-1.7-7.1c-1.4-1-2.9-1.6-4.4-2.2c1.2-1.2,2.2-2.7,3.1-4c1.8-2.5,3.7-5.2,4.8-8.1
				c0.7-1.9,1.9-4.7,0.2-6.4c-1.3-1.3-3.5-1.1-5.4-0.5c0.5-0.9,1.1-1.7,1.6-2.6c1.4-2.6,1.3-5.9-1.3-7.5c-0.1,0-0.2-0.1-0.2-0.1
				c-0.1-0.1-0.1-0.1-0.2-0.1c-2.9-1.4-5.8,0.5-7.2,3.1c-0.5,0.9-0.9,1.8-1.3,2.7c-0.1-0.2-0.1-0.4-0.2-0.5c-0.7-2-2.3-4.8-4.9-3.7
				c-2.3,1-3.9,3.7-5,5.8c-1.5,2.7-2.7,5.6-3.7,8.6c-0.2,0.5-0.5,1.3-0.8,2.1c-1.4-1.1-2.8-2.1-4.5-2.6c-2.6-0.7-5.4,0.5-6.8,2.8
				c-1.5,2.4-1.2,5.5-0.4,8.1c0.4,1.1,2.4,4.9,1.2,5.5c-1,0.5-2.2,0.6-3.2,1C631.8,181.4,630.6,182.2,629.7,183.4z"/>
			<path class="st5" d="M649.7,166.7c-0.2-0.3-0.1-0.7,0.2-0.9c0.3-0.2,0.7-0.1,0.9,0.2l4.7,7.5c1.5-2.7,3-5.4,4.4-8.1l-5.1-8.1
				c-0.2-0.3-0.1-0.7,0.2-0.9c0.3-0.2,0.7-0.1,0.9,0.2l4.7,7.5c1.6-3,3.3-6,4.9-9c0,0,0,0,0,0c0.4-0.7,1.5-0.1,1.1,0.6c0,0,0,0,0,0
				c-1.6,3-3.3,6-4.9,9l8.8,0c0.4,0,0.6,0.3,0.6,0.6c0,0.4-0.3,0.6-0.6,0.6l-9.5,0c-1.5,2.7-3,5.4-4.4,8.1l8.8,0
				c0.4,0,0.6,0.3,0.6,0.6c0,0.4-0.3,0.6-0.6,0.6l-9.5,0c-1.6,2.9-3.2,5.8-4.8,8.7l8.8,0c0.4,0,0.6,0.3,0.6,0.6
				c0,0.4-0.3,0.6-0.6,0.6l-9.5,0c-1.7,3.2-3.5,6.3-5.2,9.5l8.8,0c0.4,0,0.6,0.3,0.6,0.6c0,0.4-0.3,0.6-0.6,0.6l-9.5,0
				c-1.5,2.8-3.1,5.6-4.6,8.5c-0.4,0.7-1.5,0.1-1.1-0.6c1.5-2.8,3.1-5.6,4.6-8.5l-5.1-8.1c-0.2-0.3-0.1-0.7,0.2-0.9
				c0.3-0.2,0.7-0.1,0.9,0.2l4.7,7.5c1.7-3.2,3.5-6.3,5.2-9.5l-5.1-8.1c-0.2-0.3-0.1-0.7,0.2-0.9c0.3-0.2,0.7-0.1,0.9,0.2l4.7,7.5
				c1.6-2.9,3.2-5.8,4.8-8.7L649.7,166.7z"/>
		</g>
		<g>
			<polygon class="st8" points="441.4,84.3 433.8,84.3 440.4,68.9 448,68.9 			"/>
			<polygon class="st8" points="452.4,84.3 444.8,84.3 451.5,68.9 459.1,68.9 			"/>
			<polygon class="st8" points="463.5,84.3 455.9,84.3 462.5,68.9 470.1,68.9 			"/>
			<polygon class="st9" points="474.5,84.3 466.9,84.3 473.5,68.9 481.1,68.9 			"/>
			<polygon class="st9" points="485.5,84.3 477.9,84.3 484.5,68.9 492.2,68.9 			"/>
			<polygon class="st9" points="496.5,84.3 488.9,84.3 495.6,68.9 503.2,68.9 			"/>
			<polygon class="st9" points="507.6,84.3 500,84.3 506.6,68.9 514.2,68.9 			"/>
		</g>
		<g>
			<path class="st10" d="M690.7,114.9c0,3.5-2.8,6.4-6.4,6.4h-31.4c-3.5,0-6.4-2.8-6.4-6.4V92c0-3.5,2.8-6.4,6.4-6.4h31.4
				c3.5,0,6.4,2.8,6.4,6.4V114.9z"/>
			<g>
				<rect x="662.4" y="101.8" class="st8" width="12.5" height="3.3"/>
				<rect x="667" y="97.2" class="st8" width="3.3" height="12.5"/>
			</g>
		</g>
		<path class="st8" d="M452.6,125.1v-3.4h-4.8c-0.2-0.7-0.4-1.4-0.8-2l3.4-3.4L448,114l-3.4,3.4c-0.6-0.4-1.3-0.6-2-0.8v-4.8h-3.4
			v4.8c-0.7,0.2-1.4,0.4-2,0.8l-3.4-3.4l-2.4,2.4l3.4,3.4c-0.4,0.6-0.6,1.3-0.8,2h-4.8v3.4h4.8c0.2,0.7,0.4,1.4,0.8,2l-3.4,3.4
			l2.4,2.4l3.4-3.4c0.6,0.4,1.3,0.6,2,0.8v4.8l3.4,0v-4.8c0.7-0.2,1.4-0.4,2-0.8l3.4,3.4l2.4-2.4l-3.4-3.4c0.4-0.6,0.6-1.3,0.8-2
			H452.6z M440.9,126.6c-1.8,0-3.2-1.4-3.2-3.2c0-1.8,1.4-3.2,3.2-3.2c1.8,0,3.2,1.4,3.2,3.2C444.1,125.2,442.7,126.6,440.9,126.6z"
			/>
		<path class="st4" d="M546.8,79.6v-2h-2.9c-0.1-0.4-0.3-0.8-0.5-1.2l2.1-2.1l-1.4-1.4L542,75c-0.4-0.2-0.8-0.4-1.2-0.5v-2.9h-2v2.9
			c-0.4,0.1-0.8,0.3-1.2,0.5l-2.1-2.1l-1.4,1.4l2.1,2.1c-0.2,0.4-0.4,0.8-0.5,1.2h-2.9v2h2.9c0.1,0.4,0.3,0.8,0.5,1.2l-2.1,2.1
			l1.4,1.4l2.1-2.1c0.4,0.2,0.8,0.4,1.2,0.5v2.9l2,0v-2.9c0.4-0.1,0.8-0.3,1.2-0.5l2.1,2.1l1.4-1.4l-2.1-2.1
			c0.2-0.4,0.4-0.8,0.5-1.2H546.8z M539.8,80.5c-1.1,0-1.9-0.9-1.9-1.9s0.9-1.9,1.9-1.9c1.1,0,1.9,0.9,1.9,1.9
			S540.8,80.5,539.8,80.5z"/>
		<g>
			<path class="st11" d="M623.6,103.3H480.1c-0.8,0-1.6,0.1-2.4,0.3l-0.4-1.6l-3.8,3.8c-0.3,0.3-0.6,0.5-0.8,0.8l-0.1,0.1l0,0
				c-1.5,1.7-2.4,4-2.4,6.5v248.7c0,5.4,4.4,9.9,9.9,9.9h143.5c5.4,0,9.9-4.4,9.9-9.9V113.1C633.5,107.7,629.1,103.3,623.6,103.3z"
				/>
			<g>
				<linearGradient id="SVGID_1_" gradientUnits="userSpaceOnUse" x1="555.6355" y1="367.8965" x2="555.6355" y2="99.4587">
					<stop  offset="0" style="stop-color:#3D1F81"/>
					<stop  offset="1" style="stop-color:#6B34A6"/>
				</linearGradient>
				<path class="st12" d="M637.3,358c0,5.4-4.4,9.9-9.9,9.9H483.9c-5.4,0-9.9-4.4-9.9-9.9V109.3c0-5.4,4.4-9.9,9.9-9.9h143.5
					c5.4,0,9.9,4.4,9.9,9.9V358z"/>
				<g>
					<path class="st13" d="M584.1,116.7c0,1.2-0.9,2.1-2.1,2.1h-54.1c-1.2,0-2.1-0.9-2.1-2.1l0,0c0-1.2,0.9-2.1,2.1-2.1H582
						C583.2,114.5,584.1,115.5,584.1,116.7L584.1,116.7z"/>
					<path class="st13" d="M599.7,116.7c0,2.1-1.7,3.7-3.7,3.7c-2.1,0-3.7-1.7-3.7-3.7c0-2.1,1.7-3.7,3.7-3.7
						C598.1,112.9,599.7,114.6,599.7,116.7z"/>
				</g>
			</g>
		</g>
		<g>
			<path class="st14" d="M530.4,193.1c0,4.7-3.8,8.5-8.5,8.5h-98.6c-4.7,0-8.5-3.8-8.5-8.5v-38.1c0-4.7,3.8-8.5,8.5-8.5h98.6
				c4.7,0,8.5,3.8,8.5,8.5V193.1z"/>
			<path class="st15" d="M533.3,190.3c0,4.7-3.8,8.5-8.5,8.5h-98.6c-4.7,0-8.5-3.8-8.5-8.5v-38.1c0-4.7,3.8-8.5,8.5-8.5h98.6
				c4.7,0,8.5,3.8,8.5,8.5V190.3z"/>
			<text transform="matrix(1 0 0 1 441.4111 182.6006)" class="st13 st16 st17 st18">&lt;/&gt;</text>
		</g>
		<g>
			<rect x="547.7" y="138.7" class="st19" width="79" height="5.1"/>
			<rect x="593.4" y="148.1" class="st19" width="33.4" height="5.1"/>
			<rect x="613.2" y="172.7" class="st19" width="13.5" height="5.1"/>
			<rect x="568.3" y="158.3" class="st19" width="58.4" height="5.1"/>
			<rect x="551.2" y="172.7" class="st19" width="53" height="5.1"/>
		</g>
		<polyline class="st20" points="568.4,193 568.4,229 511.6,229 511.6,264.1 		"/>
		<polyline class="st20" points="586,318.1 586,279.1 550.9,279.1 		"/>
		<g>
			<path class="st21" d="M551.5,299c0,4.7-3.8,8.5-8.5,8.5h-85.3c-4.7,0-8.5-3.8-8.5-8.5v-38.1c0-4.7,3.8-8.5,8.5-8.5H543
				c4.7,0,8.5,3.8,8.5,8.5V299z"/>
			<path class="st22" d="M554.4,296.1c0,4.7-3.8,8.5-8.5,8.5h-85.3c-4.7,0-8.5-3.8-8.5-8.5V258c0-4.7,3.8-8.5,8.5-8.5h85.3
				c4.7,0,8.5,3.8,8.5,8.5V296.1z"/>
			<text transform="matrix(1 0 0 1 472.1201 287.9331)" class="st13 st16 st23 st24">C++</text>
		</g>
		<g>
			<g>
				<g>
					<g>
						<g>
							<g>
								<rect x="594.6" y="247.4" class="st25" width="22.5" height="23.5"/>
							</g>
							<rect x="604.4" y="264.9" class="st26" width="2.3" height="4.4"/>
							<rect x="604.4" y="257" class="st26" width="2.3" height="4.4"/>
							<rect x="604.4" y="249.2" class="st26" width="2.3" height="4.4"/>
						</g>
					</g>
					<g>
						<g>
							<g>
								<rect x="594.6" y="271" class="st25" width="22.5" height="23.5"/>
							</g>
							<rect x="604.4" y="288.4" class="st26" width="2.3" height="4.4"/>
							<rect x="604.4" y="280.6" class="st26" width="2.3" height="4.4"/>
							<rect x="604.4" y="272.7" class="st26" width="2.3" height="4.4"/>
						</g>
					</g>
					<g>
						<g>
							<g>
								<rect x="594.6" y="294.5" class="st25" width="22.5" height="23.5"/>
							</g>
							<rect x="604.4" y="311.9" class="st26" width="2.3" height="4.4"/>
							<rect x="604.4" y="304.1" class="st26" width="2.3" height="4.4"/>
							<rect x="604.4" y="296.3" class="st26" width="2.3" height="4.4"/>
						</g>
					</g>
				</g>
			</g>
		</g>
		<g>
			<path class="st27" d="M706.1,250.4c0,4.7-3.8,8.5-8.5,8.5h-98.6c-4.7,0-8.5-3.8-8.5-8.5v-38.1c0-4.7,3.8-8.5,8.5-8.5h98.6
				c4.7,0,8.5,3.8,8.5,8.5V250.4z"/>
			<path class="st28" d="M708.9,247.6c0,4.7-3.8,8.5-8.5,8.5h-98.6c-4.7,0-8.5-3.8-8.5-8.5v-38.1c0-4.7,3.8-8.5,8.5-8.5h98.6
				c4.7,0,8.5,3.8,8.5,8.5V247.6z"/>
			<text transform="matrix(1 0 0 1 612.0996 237.3667)"><tspan x="0" y="0" class="st13 st16 st29 st30">J</tspan><tspan x="13.9" y="0" class="st13 st16 st29 st31">A</tspan><tspan x="32.5" y="0" class="st13 st16 st29 st31">V</tspan><tspan x="49.7" y="0" class="st13 st16 st29 st30">A</tspan></text>
		</g>
		<g>
			<g>
				<g>
					<g>
						<g>
							<g>
								<g>
									<rect x="502.2" y="209.1" class="st25" width="23.3" height="22.5"/>
								</g>
								<rect x="519.5" y="219.6" class="st26" width="4.3" height="2.3"/>
								<rect x="511.7" y="219.6" class="st26" width="4.3" height="2.3"/>
								<rect x="504" y="219.6" class="st26" width="4.3" height="2.3"/>
							</g>
						</g>
						<g>
							<g>
								<g>
									<rect x="525.6" y="209.1" class="st25" width="23.3" height="22.5"/>
								</g>
								<rect x="542.8" y="219.6" class="st26" width="4.3" height="2.3"/>
								<rect x="535.1" y="219.6" class="st26" width="4.3" height="2.3"/>
								<rect x="527.3" y="219.6" class="st26" width="4.3" height="2.3"/>
							</g>
						</g>
					</g>
				</g>
			</g>
			<g>
				<g>
					<g>
						<g>
							<g>
								<rect x="491.9" y="224.2" class="st25" width="22.5" height="19"/>
							</g>
							<rect x="502.4" y="225.6" class="st26" width="2.3" height="3.5"/>
							<rect x="502.4" y="231.9" class="st26" width="2.3" height="3.5"/>
							<rect x="502.4" y="238.2" class="st26" width="2.3" height="3.5"/>
						</g>
					</g>
				</g>
			</g>
		</g>
		<g>
			<rect x="499.4" y="326.4" class="st19" width="117.9" height="17.9"/>
			<text transform="matrix(1 0 0 1 513.5215 339.2437)" class="st32"><tspan x="0" y="0" class="st13 st33 st34 st35">C</tspan><tspan x="8.3" y="0" class="st13 st33 st34 st36">ONNE</tspan><tspan x="44.3" y="0" class="st13 st33 st34 st36">C</tspan><tspan x="53.2" y="0" class="st13 st33 st34 st36">TED</tspan></text>
		</g>
		<text transform="matrix(1 0 0 1 568.2969 84.3267)"><tspan x="0" y="0" class="st8 st16 st37 st36">P</tspan><tspan x="8.5" y="0" class="st8 st16 st37 st36">Y</tspan><tspan x="17.5" y="0" class="st8 st16 st37 st36">THON</tspan></text>
		<path class="st38" d="M700.9,175.5c0,2.3-1.9,4.2-4.2,4.2c-2.3,0-4.2-1.9-4.2-4.2s1.9-4.2,4.2-4.2
			C699,171.2,700.9,173.1,700.9,175.5z"/>
		<path class="st39" d="M718.2,141.2c0,1.7-1.4,3.1-3.1,3.1c-1.7,0-3.1-1.4-3.1-3.1c0-1.7,1.4-3.1,3.1-3.1
			C716.8,138.1,718.2,139.5,718.2,141.2z"/>
		<path class="st39" d="M409.3,105.1c0,1.7-1.4,3.1-3.1,3.1c-1.7,0-3.1-1.4-3.1-3.1s1.4-3.1,3.1-3.1
			C407.9,102,409.3,103.4,409.3,105.1z"/>
	</g>
</g>
</svg>
