<?xml version="1.0" encoding="utf-8"?>
<!-- Generator: Adobe Illustrator 22.0.0, SVG Export Plug-In . SVG Version: 6.00 Build 0)  -->
<svg version="1.0" id="Calque_1" xmlns="http://www.w3.org/2000/svg" xmlns:xlink="http://www.w3.org/1999/xlink" x="0px" y="0px"
	 viewBox="0 0 960 540" style="enable-background:new 0 0 960 540;" xml:space="preserve">
<style type="text/css">
	.st0{fill:#001220;}
	.st1{fill:#FFAE2C;stroke:#231F20;stroke-width:13;stroke-miterlimit:10;}
	.st2{fill:#FFAE2C;stroke:#000000;stroke-width:8;stroke-miterlimit:10;}
	.st3{fill:#D6E3FE;}
	.st4{fill:#BC74E1;}
	.st5{fill:#A364C8;}
	.st6{fill:#08E1B6;}
	.st7{fill:#04C89B;}
	.st8{fill:#6833A3;}
	.st9{opacity:0.4;fill:#6833A3;}
	.st10{fill:none;stroke:#6833A3;stroke-miterlimit:10;}
	.st11{fill:#7B9FD4;}
	.st12{fill:url(#SVGID_1_);}
	.st13{fill:#FFFFFF;}
	.st14{fill:#5B8CDD;}
	.st15{fill:#A9C7F9;}
	.st16{font-family:'Montserrat-Black';}
	.st17{font-size:32.0856px;}
	.st18{letter-spacing:6;}
	.st19{opacity:0.4;fill:#FFFFFF;}
	.st20{opacity:0.4;fill:none;stroke:#402083;stroke-width:4;stroke-miterlimit:10;}
	.st21{fill:#008487;}
	.st22{fill:#00CBDC;}
	.st23{font-size:27.1247px;}
	.st24{letter-spacing:5;}
	.st25{fill:none;}
	.st26{fill-rule:evenodd;clip-rule:evenodd;fill:#FFFFFF;}
	.st27{fill:#235098;}
	.st28{fill:#4883ED;}
	.st29{font-size:23.1848px;}
	.st30{letter-spacing:4;}
	.st31{letter-spacing:3;}
	.st32{opacity:0.4;}
	.st33{font-family:'Montserrat-ExtraBold';}
	.st34{font-size:10.3585px;}
	.st35{letter-spacing:1;}
	.st36{letter-spacing:2;}
	.st37{font-size:11.0905px;}
	.st38{fill:none;stroke:#6833A3;stroke-width:3;stroke-miterlimit:10;}
	.st39{fill:none;stroke:#6833A3;stroke-width:2;stroke-miterlimit:10;}
</style>
<g>
	<rect x="-2" y="-2" class="st0" width="964" height="542.2"/>
	<path class="st1" d="M0,3.9c173.8,0,347.7,0,521.5,0c27.1,16.1,68.8,46.2,100.1,96.6c25.1,40.4,33.1,77.2,37.3,97.3
		c3.7,17.8,9.2,51.6,5.6,94.1c-6,71.9-34,121.6-41.4,134.3c-18,30.6-35.2,47.2-39.5,51.3C562,497.9,540,510,524.9,517
		c-175,0-349.9,0-524.9,0"/>
	<path class="st2" d="M748.6,417h-58.3c-82.8,0-150-67.2-150-150V140.7C540.4,63,603.3,0,681,0l255.3,0C947.2,0,956,8.8,956,19.7
		v189.9C956,324.1,863.1,417,748.6,417z"/>
	<g>
		<path class="st3" d="M900.2,364.3c0,9.5-76,17.2-169.7,17.2c-93.7,0-169.7-7.7-169.7-17.2c0-9.5,76-17.2,169.7-17.2
			C824.2,347.1,900.2,354.8,900.2,364.3z"/>
		<g>
			<g>
				<path class="st4" d="M650.2,300.9c-2.1,0.2-4.2,1-6.4,1c-2.6,0-2.3-8.4-2.6-10.5c-0.8-5.2-2.9-10.6-7.6-13.5
					c-4.4-2.7-10.3-2.2-14.1,1.2c-2.5,2.2-4.1,5.3-5.6,8.4c-1.2-1.2-2.5-2.3-3.2-3c-4.3-4.2-8.9-8.1-13.8-11.5
					c-3.8-2.6-8.9-5.9-13.7-5.6c-5.4,0.3-5.7,6.4-5.2,10.5c0,0.3,0.1,0.7,0.2,1c-1.5-1.2-3-2.3-4.6-3.4c-4.7-3.3-11.2-4-14.9,0.9
					c-0.1,0.1-0.2,0.3-0.2,0.4c-0.1,0.1-0.2,0.2-0.3,0.4c-3.2,5.1-0.4,10.9,4.2,14.1c1.6,1.1,3.3,2.2,4.9,3.2
					c-3.9,0.7-7.7,2.1-8.9,5.6c-1.5,4.4,3.1,8.2,5.9,10.7c4.4,4,9.9,7,15.2,9.7c2.8,1.4,5.7,3,8.8,4.1c-2.1,2.4-4.2,4.7-5.7,7.7
					c-2.3,4.6-0.5,10.4,3.2,13.7c4.2,3.7,9.9,3.8,15.1,2.9c2-0.3,10.3-3.7,11.3-1.8c0.9,1.7,1,4,1.4,5.9c0.5,2.8,1.7,5.4,3.6,7.4
					c3.7,3.9,9.5,4.2,14.5,3.6c5.8-0.7,11.5-2.8,16.8-5.3c2.9-1.3,5.7-2.8,8.5-4.3c1.3-0.7,4-3.1,5.6-2.7c0.9,0.3,1.7,0.1,2.4-0.4
					c0.2-0.1,0.4-0.3,0.5-0.5c0,0,0,0,0,0c0,0,0.1-0.1,0.1-0.1c0,0,0,0,0.1-0.1c0,0,0-0.1,0-0.1c0-0.1,0.1-0.1,0.1-0.2c0,0,0,0,0,0
					c0.1-0.2,0.2-0.4,0.3-0.7c0.2-0.8,0.1-1.7-0.5-2.4c-0.8-1.2,0.3-4,0.5-5.4c0.5-3.1,0.7-6.3,1-9.5c0.5-5.9,0.3-11.9-0.9-17.7
					c-1-5-3.3-10.2-8.1-12.7C655.8,300.8,653.1,300.7,650.2,300.9z"/>
				<path class="st5" d="M609.5,291c0.1-0.7-0.4-1.3-1.1-1.3c-0.7-0.1-1.3,0.4-1.3,1.1l-1.6,16.9c-4.9-3.3-9.7-6.7-14.6-10l1.8-18.2
					c0.1-0.7-0.4-1.3-1.1-1.3c-0.7-0.1-1.3,0.4-1.3,1.1l-1.6,16.9c-5.4-3.7-10.8-7.4-16.2-11.1c0,0,0,0-0.1,0
					c-1.3-0.9-2.7,1.1-1.4,2c0,0,0,0,0.1,0c5.4,3.7,10.8,7.4,16.2,11.1l-15.2,7.6c-0.6,0.3-0.9,1-0.6,1.7c0.3,0.6,1,0.9,1.7,0.6
					l16.4-8.2c4.9,3.3,9.7,6.7,14.6,10l-15.2,7.6c-0.6,0.3-0.9,1-0.6,1.7c0.3,0.6,1,0.9,1.7,0.6l16.4-8.2
					c5.2,3.6,10.5,7.2,15.7,10.8l-15.2,7.6c-0.6,0.3-0.9,1-0.6,1.7c0.3,0.6,1,0.9,1.7,0.6l16.4-8.2c5.7,3.9,11.4,7.9,17.1,11.8
					l-15.2,7.6c-0.6,0.3-0.9,1-0.6,1.7c0.3,0.6,1,0.9,1.7,0.6l16.4-8.2c5.1,3.5,10.2,7,15.3,10.5c1.3,0.9,2.7-1.1,1.4-2
					c-5.1-3.5-10.2-7-15.3-10.5l1.8-18.2c0.1-0.7-0.4-1.3-1.1-1.3c-0.7-0.1-1.3,0.4-1.3,1.1l-1.6,16.9c-5.7-3.9-11.4-7.9-17.1-11.8
					l1.8-18.2c0.1-0.7-0.4-1.3-1.1-1.3c-0.7-0.1-1.3,0.4-1.3,1.1l-1.6,16.9c-5.2-3.6-10.5-7.2-15.7-10.8L609.5,291z"/>
			</g>
			<g>
				<path class="st6" d="M691.2,282.2c-2.7-0.7-5.6-0.5-8.2-1.5c-3.2-1.1,0.7-11.2,1.2-13.9c1.3-6.7,0.9-14.2-3.5-19.7
					c-4.2-5.2-11.6-7.1-17.7-4.6c-4.1,1.7-7.2,4.8-10.3,7.8c-0.9-2-2-3.9-2.6-5c-3.4-6.9-7.4-13.6-11.9-19.9
					c-3.5-4.8-8.3-11-14.3-12.6c-6.7-1.9-9.7,5.4-10.8,10.6c-0.1,0.4-0.2,0.9-0.2,1.3c-1.3-2.1-2.7-4.1-4.2-6.1
					c-4.3-6-12-9.6-18.6-5.2c-0.2,0.1-0.3,0.3-0.5,0.4c-0.2,0.1-0.4,0.2-0.5,0.3c-6.1,4.9-5.1,13.1-0.9,19c1.5,2,3.1,4,4.7,6
					c-5-0.8-10.3-0.7-13.2,3c-3.7,4.8,0.3,11.3,2.7,15.6c3.7,6.8,9.1,12.8,14.4,18.3c2.8,2.9,5.7,6.1,9,8.8c-3.6,2-7.2,4-10.2,7
					c-4.7,4.6-5.1,12.4-1.9,18c3.5,6.3,10.5,8.8,17.3,9.9c2.6,0.4,14.1-0.2,14.6,2.6c0.4,2.5-0.5,5.4-0.8,7.8
					c-0.6,3.6-0.2,7.3,1.3,10.6c2.9,6.4,9.8,9.1,16.2,10.6c7.4,1.6,15.3,1.4,22.8,0.7c4.1-0.4,8.1-1,12.2-1.6c1.9-0.3,6.2-2.1,8-1
					c0.9,0.8,2.1,0.9,3.1,0.6c0.3-0.1,0.6-0.2,0.9-0.4c0,0,0,0,0,0c0.1,0,0.1-0.1,0.2-0.1c0,0,0.1,0,0.1-0.1c0,0,0.1,0,0.1-0.1
					c0.1,0,0.1-0.1,0.2-0.2c0,0,0,0,0,0c0.2-0.2,0.4-0.4,0.6-0.7c0.6-0.9,0.8-2.1,0.4-3.2c-0.5-1.9,2-4.8,2.8-6.4
					c1.9-3.6,3.5-7.4,5.2-11.1c3.1-7,5.5-14.4,6.5-22c0.9-6.5,0.3-13.9-4.5-18.9C698,284.4,694.7,283.1,691.2,282.2z"/>
				<path class="st7" d="M645.8,252.7c0.4-0.8,0-1.7-0.8-2.1c-0.8-0.4-1.7,0-2.1,0.8l-9.2,19.9c-4.5-6.2-9-12.3-13.6-18.5l9.9-21.5
					c0.4-0.8,0-1.7-0.8-2.1c-0.8-0.4-1.7,0-2.1,0.8l-9.2,19.9c-5-6.8-10-13.7-15-20.5c0,0,0-0.1-0.1-0.1c-1.2-1.7-3.8,0.2-2.6,1.9
					c0,0,0,0.1,0.1,0.1c5,6.8,10,13.7,15,20.5l-21.7,2.8c-0.9,0.1-1.5,0.9-1.4,1.8c0.1,0.9,0.9,1.5,1.8,1.4l23.5-3
					c4.5,6.2,9,12.3,13.6,18.5l-21.7,2.8c-0.9,0.1-1.5,0.9-1.4,1.8c0.1,0.9,0.9,1.5,1.8,1.4l23.5-3c4.9,6.6,9.7,13.3,14.6,19.9
					l-21.7,2.8c-0.9,0.1-1.5,0.9-1.4,1.8c0.1,0.9,0.9,1.5,1.8,1.4l23.5-3c5.3,7.2,10.6,14.4,15.9,21.7l-21.7,2.8
					c-0.9,0.1-1.5,0.9-1.4,1.8c0.1,0.9,0.9,1.5,1.8,1.4l23.5-3c4.7,6.4,9.5,12.9,14.2,19.3c1.2,1.7,3.8-0.2,2.6-1.9
					c-4.7-6.4-9.5-12.9-14.2-19.3l9.9-21.5c0.4-0.8,0-1.7-0.8-2.1c-0.8-0.4-1.7,0-2.1,0.8l-9.2,19.9c-5.3-7.2-10.6-14.4-15.9-21.7
					l9.9-21.5c0.4-0.8,0-1.7-0.8-2.1c-0.8-0.4-1.7,0-2.1,0.8l-9.2,19.9c-4.9-6.6-9.7-13.3-14.6-19.9L645.8,252.7z"/>
			</g>
		</g>
		<g>
			<path class="st6" d="M804.6,306.4c-3.5,2.4-4.7,6.7-5.1,10.7c-0.4,4.7,0.1,9.4,1.1,14c0.5,2.4,1,4.9,1.7,7.3
				c0.3,1,1.4,3.1,0.9,4.2c-0.4,0.6-0.4,1.3-0.2,1.9c0.1,0.2,0.2,0.3,0.3,0.5c0,0,0,0,0,0c0,0,0.1,0.1,0.1,0.1c0,0,0,0,0,0.1
				c0,0,0,0,0,0.1c0,0,0.1,0.1,0.1,0.1c0,0,0,0,0,0c0.1,0.1,0.3,0.2,0.5,0.3c0.6,0.3,1.3,0.4,1.9,0.1c1.2-0.4,3.5,1.2,4.7,1.6
				c2.4,0.9,4.7,1.7,7.1,2.5c4.4,1.4,9.1,2.5,13.7,2.5c4,0,8.5-0.8,11-4.3c1.3-1.8,2-3.9,2.1-6.2c0.1-1.5-0.1-3.3,0.5-4.8
				c0.6-1.6,7.4,0.2,9,0.3c4.2,0.2,8.7-0.4,11.6-3.8c2.6-3,3.4-7.6,1.1-11c-1.4-2.2-3.3-3.8-5.2-5.5c2.3-1.2,4.4-2.7,6.5-4.1
				c3.9-2.6,7.9-5.5,10.9-9.1c1.9-2.3,5.1-5.7,3.6-9c-1.2-2.6-4.4-3.3-7.5-3.5c1.2-1,2.4-1.9,3.6-3c3.3-3,4.9-7.8,1.9-11.5
				c-0.1-0.1-0.2-0.2-0.3-0.3c-0.1-0.1-0.1-0.2-0.2-0.3c-3.4-3.5-8.5-2.3-11.8,0.7c-1.1,1-2.2,2.1-3.3,3.1c0-0.3,0-0.6,0-0.8
				c0-3.3-0.8-8-5.1-7.7c-3.8,0.2-7.4,3.3-10.1,5.7c-3.5,3.2-6.7,6.7-9.6,10.4c-0.5,0.6-1.4,1.6-2.2,2.7c-1.5-2.2-3-4.5-5.2-6
				c-3.3-2.3-8-2.1-11.2,0.5c-3.4,2.7-4.5,7.2-4.6,11.3c0,1.7,1,8.2-1,8.5c-1.7,0.2-3.4-0.2-5.1-0.2
				C808.6,304.7,806.5,305.1,804.6,306.4z"/>
			<path class="st7" d="M841.7,292.8c-0.1-0.5,0.2-1,0.7-1.2c0.5-0.1,1,0.2,1.2,0.7l2.9,13.1c3.5-3.1,7-6.2,10.4-9.3l-3.2-14.1
				c-0.1-0.5,0.2-1,0.7-1.2c0.5-0.1,1,0.2,1.2,0.7l2.9,13.1c3.9-3.4,7.7-6.9,11.6-10.3c0,0,0,0,0,0c0.9-0.8,2.2,0.6,1.3,1.5
				c0,0,0,0,0,0c-3.9,3.4-7.7,6.9-11.6,10.3l12.6,4.4c0.5,0.2,0.8,0.7,0.6,1.2c-0.2,0.5-0.7,0.8-1.2,0.6l-13.6-4.8
				c-3.5,3.1-7,6.2-10.4,9.3l12.6,4.4c0.5,0.2,0.8,0.7,0.6,1.2c-0.2,0.5-0.7,0.8-1.2,0.6l-13.6-4.8c-3.8,3.3-7.5,6.7-11.2,10
				l12.6,4.4c0.5,0.2,0.8,0.7,0.6,1.2c-0.2,0.5-0.7,0.8-1.2,0.6l-13.7-4.8c-4.1,3.6-8.2,7.3-12.3,10.9l12.6,4.4
				c0.5,0.2,0.8,0.7,0.6,1.2c-0.2,0.5-0.7,0.8-1.2,0.6l-13.6-4.8c-3.6,3.2-7.3,6.5-10.9,9.7c-0.9,0.8-2.2-0.6-1.3-1.5
				c3.6-3.2,7.3-6.5,10.9-9.7l-3.2-14.1c-0.1-0.5,0.2-1,0.7-1.2c0.5-0.1,1,0.2,1.2,0.7l2.9,13.1c4.1-3.6,8.2-7.3,12.3-10.9
				l-3.2-14.1c-0.1-0.5,0.2-1,0.7-1.2c0.5-0.1,1,0.2,1.2,0.7l2.9,13.1c3.7-3.3,7.5-6.7,11.2-10L841.7,292.8z"/>
		</g>
		<g>
			<path class="st4" d="M815.4,193.7c-1.5,2.1-1.4,4.9-0.7,7.4c0.8,2.8,2,5.5,3.6,8c0.8,1.3,1.6,2.7,2.5,3.9
				c0.4,0.5,1.5,1.5,1.4,2.3c-0.1,0.4,0,0.9,0.3,1.2c0.1,0.1,0.2,0.2,0.3,0.2c0,0,0,0,0,0c0,0,0.1,0,0.1,0c0,0,0,0,0,0c0,0,0,0,0,0
				c0,0,0.1,0,0.1,0c0,0,0,0,0,0c0.1,0,0.2,0.1,0.3,0.1c0.4,0.1,0.9,0,1.2-0.4c0.6-0.5,2.3,0,3.1,0c1.6,0,3.1,0,4.7,0
				c2.9-0.1,5.9-0.4,8.6-1.4c2.3-0.9,4.8-2.3,5.6-4.8c0.4-1.3,0.3-2.7,0-4.1c-0.3-0.9-0.7-2-0.7-2.9c0-1.1,4.4-1.4,5.4-1.7
				c2.5-0.8,5-2.1,6-4.6c0.9-2.3,0.4-5.2-1.6-6.7c-1.3-1-2.7-1.6-4.2-2.1c1.1-1.2,2-2.5,3-3.8c1.7-2.4,3.5-4.9,4.5-7.7
				c0.7-1.8,1.8-4.4,0.2-6c-1.3-1.3-3.3-1.1-5.1-0.5c0.5-0.8,1-1.6,1.5-2.5c1.3-2.4,1.3-5.6-1.3-7.1c-0.1,0-0.1-0.1-0.2-0.1
				c-0.1,0-0.1-0.1-0.2-0.1c-2.7-1.3-5.5,0.4-6.8,2.9c-0.4,0.8-0.9,1.7-1.3,2.5c-0.1-0.2-0.1-0.3-0.2-0.5c-0.7-1.9-2.2-4.5-4.6-3.5
				c-2.2,0.9-3.7,3.5-4.8,5.5c-1.4,2.6-2.6,5.3-3.5,8.1c-0.2,0.5-0.5,1.2-0.7,2c-1.3-1-2.7-2-4.3-2.4c-2.4-0.6-5.1,0.5-6.5,2.6
				c-1.4,2.3-1.2,5.2-0.3,7.6c0.3,1,2.3,4.6,1.2,5.2c-1,0.5-2.1,0.6-3,1C817.4,191.9,816.3,192.6,815.4,193.7z"/>
			<path class="st5" d="M834.4,178c-0.2-0.3-0.1-0.7,0.2-0.8c0.3-0.2,0.7-0.1,0.8,0.2l4.5,7.1c1.4-2.6,2.8-5.1,4.2-7.7l-4.8-7.6
				c-0.2-0.3-0.1-0.7,0.2-0.8c0.3-0.2,0.7-0.1,0.8,0.2l4.5,7.1c1.6-2.8,3.1-5.7,4.7-8.5c0,0,0,0,0,0c0.4-0.7,1.4-0.1,1.1,0.6
				c0,0,0,0,0,0c-1.6,2.8-3.1,5.7-4.7,8.5l8.4,0c0.3,0,0.6,0.3,0.6,0.6c0,0.3-0.3,0.6-0.6,0.6l-9,0c-1.4,2.6-2.8,5.1-4.2,7.7l8.4,0
				c0.3,0,0.6,0.3,0.6,0.6c0,0.3-0.3,0.6-0.6,0.6l-9,0c-1.5,2.8-3,5.5-4.5,8.3l8.4,0c0.3,0,0.6,0.3,0.6,0.6c0,0.3-0.3,0.6-0.6,0.6
				l-9,0c-1.6,3-3.3,6-4.9,9l8.4,0c0.3,0,0.6,0.3,0.6,0.6c0,0.3-0.3,0.6-0.6,0.6l-9,0c-1.5,2.7-2.9,5.3-4.4,8
				c-0.4,0.7-1.4,0.1-1.1-0.6c1.5-2.7,2.9-5.3,4.4-8l-4.8-7.6c-0.2-0.3-0.1-0.7,0.2-0.8c0.3-0.2,0.7-0.1,0.8,0.2l4.5,7.1
				c1.6-3,3.3-6,4.9-9l-4.8-7.6c-0.2-0.3-0.1-0.7,0.2-0.8c0.3-0.2,0.7-0.1,0.8,0.2l4.5,7.1c1.5-2.8,3-5.5,4.5-8.3L834.4,178z"/>
		</g>
		<g>
			<polygon class="st8" points="637,99.9 629.8,99.9 636.1,85.3 643.3,85.3 			"/>
			<polygon class="st8" points="647.5,99.9 640.3,99.9 646.6,85.3 653.8,85.3 			"/>
			<polygon class="st8" points="657.9,99.9 650.7,99.9 657,85.3 664.2,85.3 			"/>
			<polygon class="st9" points="668.4,99.9 661.2,99.9 667.5,85.3 674.7,85.3 			"/>
			<polygon class="st9" points="678.8,99.9 671.6,99.9 677.9,85.3 685.1,85.3 			"/>
			<polygon class="st9" points="689.3,99.9 682.1,99.9 688.4,85.3 695.6,85.3 			"/>
			<polygon class="st9" points="699.7,99.9 692.5,99.9 698.8,85.3 706,85.3 			"/>
		</g>
		<g>
			<path class="st10" d="M873.2,128.9c0,3.3-2.7,6-6,6h-29.8c-3.3,0-6-2.7-6-6v-21.8c0-3.3,2.7-6,6-6h29.8c3.3,0,6,2.7,6,6V128.9z"
				/>
			<g>
				<rect x="846.4" y="116.5" class="st8" width="11.9" height="3.2"/>
				<rect x="850.7" y="112.1" class="st8" width="3.2" height="11.9"/>
			</g>
		</g>
		<path class="st8" d="M647.6,138.6v-3.2H643c-0.2-0.7-0.4-1.3-0.8-1.9l3.2-3.2l-2.2-2.2l-3.2,3.2c-0.6-0.3-1.2-0.6-1.9-0.8v-4.6
			H635v4.6c-0.7,0.2-1.3,0.4-1.9,0.8l-3.2-3.2l-2.2,2.2l3.2,3.2c-0.3,0.6-0.6,1.2-0.8,1.9h-4.6v3.2h4.6c0.2,0.7,0.4,1.3,0.8,1.9
			l-3.2,3.2l2.2,2.2l3.2-3.2c0.6,0.3,1.2,0.6,1.9,0.8v4.6l3.2,0v-4.6c0.7-0.2,1.3-0.4,1.9-0.8l3.2,3.2l2.2-2.2l-3.2-3.2
			c0.3-0.6,0.6-1.2,0.8-1.9H647.6z M636.6,140c-1.7,0-3-1.4-3-3s1.4-3,3-3c1.7,0,3,1.4,3,3S638.2,140,636.6,140z"/>
		<path class="st4" d="M736.9,95.4v-1.9h-2.8c-0.1-0.4-0.3-0.8-0.5-1.1l2-2l-1.4-1.4l-2,2c-0.3-0.2-0.7-0.4-1.1-0.5v-2.8h-1.9v2.8
			c-0.4,0.1-0.8,0.3-1.1,0.5l-2-2l-1.4,1.4l2,2c-0.2,0.3-0.4,0.7-0.5,1.1h-2.8v1.9h2.8c0.1,0.4,0.3,0.8,0.5,1.1l-2,2l1.4,1.4l2-2
			c0.3,0.2,0.7,0.4,1.1,0.5v2.8l1.9,0v-2.8c0.4-0.1,0.8-0.3,1.1-0.5l1.9,2l1.4-1.4l-2-2c0.2-0.3,0.4-0.7,0.5-1.1H736.9z M730.2,96.3
			c-1,0-1.8-0.8-1.8-1.8c0-1,0.8-1.8,1.8-1.8c1,0,1.8,0.8,1.8,1.8C732,95.5,731.2,96.3,730.2,96.3z"/>
		<g>
			<path class="st11" d="M809.7,117.8h-136c-0.8,0-1.5,0.1-2.2,0.3l-0.4-1.5l-3.6,3.6c-0.3,0.2-0.5,0.5-0.8,0.8l-0.1,0.1l0,0
				c-1.4,1.6-2.3,3.8-2.3,6.1v235.7c0,5.2,4.2,9.3,9.3,9.3h136c5.2,0,9.3-4.2,9.3-9.3V127.2C819,122,814.8,117.8,809.7,117.8z"/>
			<g>
				<linearGradient id="SVGID_1_" gradientUnits="userSpaceOnUse" x1="745.2571" y1="368.582" x2="745.2571" y2="114.2371">
					<stop  offset="0" style="stop-color:#3D1F81"/>
					<stop  offset="1" style="stop-color:#6B34A6"/>
				</linearGradient>
				<path class="st12" d="M822.6,359.2c0,5.2-4.2,9.3-9.3,9.3h-136c-5.2,0-9.3-4.2-9.3-9.3V123.6c0-5.2,4.2-9.3,9.3-9.3h136
					c5.2,0,9.3,4.2,9.3,9.3V359.2z"/>
				<g>
					<path class="st13" d="M772.3,130.5c0,1.1-0.9,2-2,2H719c-1.1,0-2-0.9-2-2l0,0c0-1.1,0.9-2,2-2h51.2
						C771.4,128.5,772.3,129.4,772.3,130.5L772.3,130.5z"/>
					<path class="st13" d="M787,130.5c0,1.9-1.6,3.5-3.5,3.5c-1.9,0-3.5-1.6-3.5-3.5c0-1.9,1.6-3.5,3.5-3.5
						C785.5,127,787,128.6,787,130.5z"/>
				</g>
			</g>
		</g>
		<g>
			<path class="st14" d="M721.4,203c0,4.5-3.6,8.1-8.1,8.1h-93.4c-4.5,0-8.1-3.6-8.1-8.1v-36.1c0-4.5,3.6-8.1,8.1-8.1h93.4
				c4.5,0,8.1,3.6,8.1,8.1V203z"/>
			<path class="st15" d="M724.1,200.3c0,4.5-3.6,8.1-8.1,8.1h-93.4c-4.5,0-8.1-3.6-8.1-8.1v-36.1c0-4.5,3.6-8.1,8.1-8.1H716
				c4.5,0,8.1,3.6,8.1,8.1V200.3z"/>
			<text transform="matrix(1 0 0 1 637.0293 193.0142)" class="st13 st16 st17 st18">&lt;/&gt;</text>
		</g>
		<g>
			<rect x="737.7" y="151.4" class="st19" width="74.9" height="4.8"/>
			<rect x="781" y="160.3" class="st19" width="31.6" height="4.8"/>
			<rect x="799.8" y="183.6" class="st19" width="12.8" height="4.8"/>
			<rect x="757.3" y="170" class="st19" width="55.4" height="4.8"/>
			<rect x="741" y="183.6" class="st19" width="50.2" height="4.8"/>
		</g>
		<polyline class="st20" points="757.4,202.8 757.4,237 703.6,237 703.6,270.2 		"/>
		<polyline class="st20" points="774,321.4 774,284.4 740.8,284.4 		"/>
		<g>
			<path class="st21" d="M741.4,303.3c0,4.5-3.6,8.1-8.1,8.1h-80.8c-4.5,0-8.1-3.6-8.1-8.1v-36.1c0-4.5,3.6-8.1,8.1-8.1h80.8
				c4.5,0,8.1,3.6,8.1,8.1V303.3z"/>
			<path class="st22" d="M744.1,300.6c0,4.5-3.6,8.1-8.1,8.1h-80.8c-4.5,0-8.1-3.6-8.1-8.1v-36.1c0-4.5,3.6-8.1,8.1-8.1H736
				c4.5,0,8.1,3.6,8.1,8.1V300.6z"/>
			<text transform="matrix(1 0 0 1 666.126 292.8169)" class="st13 st16 st23 st24">C++</text>
		</g>
		<g>
			<g>
				<g>
					<g>
						<g>
							<g>
								<rect x="781.6" y="254.4" class="st25" width="22.5" height="22.3"/>
							</g>
							<rect x="791.4" y="270.9" class="st26" width="2.3" height="4.1"/>
							<rect x="791.4" y="263.5" class="st26" width="2.3" height="4.1"/>
							<rect x="791.4" y="256.1" class="st26" width="2.3" height="4.1"/>
						</g>
					</g>
					<g>
						<g>
							<g>
								<rect x="781.6" y="276.7" class="st25" width="22.5" height="22.3"/>
							</g>
							<rect x="791.4" y="293.3" class="st26" width="2.3" height="4.1"/>
							<rect x="791.4" y="285.8" class="st26" width="2.3" height="4.1"/>
							<rect x="791.4" y="278.4" class="st26" width="2.3" height="4.1"/>
						</g>
					</g>
					<g>
						<g>
							<g>
								<rect x="781.6" y="299" class="st25" width="22.5" height="22.3"/>
							</g>
							<rect x="791.4" y="315.6" class="st26" width="2.3" height="4.1"/>
							<rect x="791.4" y="308.1" class="st26" width="2.3" height="4.1"/>
							<rect x="791.4" y="300.7" class="st26" width="2.3" height="4.1"/>
						</g>
					</g>
				</g>
			</g>
		</g>
		<g>
			<path class="st27" d="M887.8,257.3c0,4.5-3.6,8.1-8.1,8.1h-93.4c-4.5,0-8.1-3.6-8.1-8.1v-36.1c0-4.5,3.6-8.1,8.1-8.1h93.4
				c4.5,0,8.1,3.6,8.1,8.1V257.3z"/>
			<path class="st28" d="M890.5,254.6c0,4.5-3.6,8.1-8.1,8.1H789c-4.5,0-8.1-3.6-8.1-8.1v-36.1c0-4.5,3.6-8.1,8.1-8.1h93.4
				c4.5,0,8.1,3.6,8.1,8.1V254.6z"/>
			<text transform="matrix(1 0 0 1 798.7559 244.9058)"><tspan x="0" y="0" class="st13 st16 st29 st30">J</tspan><tspan x="13.2" y="0" class="st13 st16 st29 st31">A</tspan><tspan x="30.8" y="0" class="st13 st16 st29 st31">V</tspan><tspan x="47.1" y="0" class="st13 st16 st29 st30">A</tspan></text>
		</g>
		<g>
			<g>
				<g>
					<g>
						<g>
							<g>
								<g>
									<rect x="694.7" y="217.6" class="st25" width="22.1" height="22.5"/>
								</g>
								<rect x="711" y="228" class="st26" width="4.1" height="2.3"/>
								<rect x="703.7" y="228" class="st26" width="4.1" height="2.3"/>
								<rect x="696.3" y="228" class="st26" width="4.1" height="2.3"/>
							</g>
						</g>
						<g>
							<g>
								<g>
									<rect x="716.8" y="217.6" class="st25" width="22.1" height="22.5"/>
								</g>
								<rect x="733.1" y="228" class="st26" width="4.1" height="2.3"/>
								<rect x="725.8" y="228" class="st26" width="4.1" height="2.3"/>
								<rect x="718.4" y="228" class="st26" width="4.1" height="2.3"/>
							</g>
						</g>
					</g>
				</g>
			</g>
			<g>
				<g>
					<g>
						<g>
							<g>
								<rect x="684.3" y="232.4" class="st25" width="22.5" height="18"/>
							</g>
							<rect x="694.8" y="233.7" class="st26" width="2.3" height="3.3"/>
							<rect x="694.8" y="239.7" class="st26" width="2.3" height="3.3"/>
							<rect x="694.8" y="245.7" class="st26" width="2.3" height="3.3"/>
						</g>
					</g>
				</g>
			</g>
		</g>
		<g>
			<rect x="691.9" y="329.3" class="st19" width="111.7" height="16.9"/>
			<text transform="matrix(1 0 0 1 705.3535 341.4336)" class="st32"><tspan x="0" y="0" class="st13 st33 st34 st35">C</tspan><tspan x="7.9" y="0" class="st13 st33 st34 st36">ONNE</tspan><tspan x="42" y="0" class="st13 st33 st34 st36">C</tspan><tspan x="50.4" y="0" class="st13 st33 st34 st36">TED</tspan></text>
		</g>
		<text transform="matrix(1 0 0 1 757.2529 99.8999)"><tspan x="0" y="0" class="st8 st16 st37 st36">P</tspan><tspan x="8" y="0" class="st8 st16 st37 st36">Y</tspan><tspan x="16.6" y="0" class="st8 st16 st37 st36">THON</tspan></text>
		<path class="st38" d="M882.9,186.3c0,2.2-1.8,4-4,4c-2.2,0-4-1.8-4-4s1.8-4,4-4C881.1,182.3,882.9,184.1,882.9,186.3z"/>
		<path class="st39" d="M899.3,153.8c0,1.6-1.3,2.9-2.9,2.9s-2.9-1.3-2.9-2.9c0-1.6,1.3-2.9,2.9-2.9S899.3,152.2,899.3,153.8z"/>
		<path class="st39" d="M606.6,119.6c0,1.6-1.3,2.9-2.9,2.9c-1.6,0-2.9-1.3-2.9-2.9c0-1.6,1.3-2.9,2.9-2.9
			C605.3,116.7,606.6,118,606.6,119.6z"/>
	</g>
</g>
</svg>
